<svg xmlns="http://www.w3.org/2000/svg" xmlns:xlink="http://www.w3.org/1999/xlink" width="680" height="400" fill="none" xmlns:v="https://vecta.io/nano"><style><![CDATA[.B{fill:#5578f9}.C{opacity:.2}.D{fill:#031863}.E{fill-opacity:.4}.F{stroke:#031863}.G{fill:#fff}.H{fill:#4d4e59}.I{fill:#eef0f2}.J{fill:#42434d}.K{fill:#ffdfba}.L{fill:#ffebd2}.M{fill:#ffd6a6}.N{fill:#bdccdb}.O{fill:#c79a83}.P{fill:#e0b7a3}.Q{fill:#fff3e4}.R{fill:#a07765}.S{fill:#d6f4fc}.T{fill:#f2d1c2}]]></style><g clip-path="url(#A)"><path d="M0 0h680v400H0z" class="G"/><path fill="#1d2630" d="M0 0h680v400H0z"/><rect x="266" y="12" width="148" height="23" rx="11.5" class="I"/><rect x="282" y="48" width="117" height="19" rx="9.5" class="B"/><rect x="325" y="57" width="30" height="2" rx="1" fill="#cbd2d9"/><rect x="291.5" y="77.5" width="101" height="28" rx="4.5" fill="#bfddc1" stroke="#94acb8"/><rect x="48" y="125" width="142" height="190" rx="4" class="B"/><rect x="76" y="284" width="85" height="7" rx="3.5" class="N"/><rect x="62" y="258" width="114" height="14" rx="7" class="I"/><path d="M162.5 188c0 24.024-19.476 43.5-43.5 43.5S75.5 212.024 75.5 188s19.476-43.5 43.5-43.5 43.5 19.476 43.5 43.5z" class="C D E F"/><rect x="48" y="323" width="142" height="190" rx="4" class="B"/><path d="M162.5 386c0 24.024-19.476 43.5-43.5 43.5S75.5 410.024 75.5 386s19.476-43.5 43.5-43.5 43.5 19.476 43.5 43.5z" class="C D E F"/><rect x="198" y="323" width="142" height="190" rx="4" class="B"/><use xlink:href="#F" class="C D E F"/><rect x="348" y="323" width="142" height="190" rx="4" class="B"/><path d="M462.5 386c0 24.024-19.476 43.5-43.5 43.5s-43.5-19.476-43.5-43.5 19.476-43.5 43.5-43.5 43.5 19.476 43.5 43.5z" class="C D E F"/><rect x="498" y="323" width="142" height="190" rx="4" class="B"/><path d="M612.5 386c0 24.024-19.476 43.5-43.5 43.5s-43.5-19.476-43.5-43.5 19.476-43.5 43.5-43.5 43.5 19.476 43.5 43.5z" class="C D E F"/><rect x="198" y="125" width="142" height="190" rx="4" class="B"/><rect x="226" y="284" width="85" height="7" rx="3.5" class="N"/><rect x="212" y="258" width="114" height="14" rx="7" class="I"/><path d="M312.5 188c0 24.024-19.476 43.5-43.5 43.5s-43.5-19.476-43.5-43.5 19.476-43.5 43.5-43.5 43.5 19.476 43.5 43.5z" class="C D E F"/><rect x="348" y="125" width="142" height="190" rx="4" class="B"/><rect x="376" y="284" width="85" height="7" rx="3.5" class="N"/><rect x="362" y="258" width="114" height="14" rx="7" class="I"/><path d="M462.5 188c0 24.024-19.476 43.5-43.5 43.5s-43.5-19.476-43.5-43.5 19.476-43.5 43.5-43.5 43.5 19.476 43.5 43.5z" class="C D E F"/><rect x="498" y="125" width="142" height="190" rx="4" class="B"/><rect x="526" y="284" width="85" height="7" rx="3.5" class="N"/><rect x="512" y="258" width="114" height="14" rx="7" class="I"/><path d="M612.5 188c0 24.024-19.476 43.5-43.5 43.5s-43.5-19.476-43.5-43.5 19.476-43.5 43.5-43.5 43.5 19.476 43.5 43.5z" class="C D E F"/><path d="M293.55 215.4v6.323c0 .705-.57 1.276-1.276 1.276h-46.568c-.705 0-1.276-.57-1.276-1.276V215.4c0-6.576 5.38-11.768 11.956-11.83a6.6 6.6 0 0 0 6.544-6.593v-1.09l.024-.06a15.07 15.07 0 0 0 1.5.533c-6.314-1.92-11.253-7.733-11.253-15.125v-.5c-2.274 0-3.987-1.797-3.987-3.913v-22.72c0-2.818 2.286-5.104 5.104-5.104h29.344c2.818 0 5.104 2.286 5.104 5.104v22.646c0 2.203-1.785 3.987-3.987 3.987v.5c0 6.58-4.027 12.222-9.753 14.592l.024.06v1.09c0 3.643 2.943 6.56 6.544 6.593 6.575.063 11.956 5.255 11.956 11.83h0z" class="O"/><path d="M293.57 215.38v6.323c0 .705-.57 1.276-1.276 1.276h-46.568c-.705 0-1.276-.57-1.276-1.276v-6.323c0-6.576 5.38-11.768 11.956-11.83 1.525-.014 2.928-.545 4.04-1.424 1.28 1.28 3.307 2.99 3.886 6.462 2.876 1.313 6.716 1.238 9.343.082.553-3.502 2.584-5.228 3.9-6.544 1.112.88 2.515 1.4 4.04 1.424 6.575.063 11.956 5.255 11.956 11.83h0z" fill="#fe4f60"/><path d="M284.78 181.237c0 6.58-4.027 12.222-9.753 14.592-10.328 4.288-21.825-3.315-21.825-14.592v-10.35c0-4.228 3.428-7.655 7.655-7.655h16.268c4.227 0 7.655 3.427 7.655 7.655v10.35z" class="P"/><path d="M288.766 154.104v22.646c0 2.203-1.785 3.987-3.987 3.987v-9.85c0-4.228-3.428-7.655-7.655-7.655h-16.268c-4.227 0-7.655 3.427-7.655 7.655v9.85c-2.273 0-3.987-1.796-3.987-3.913v-22.72c0-2.818 2.286-5.104 5.104-5.104h29.344c2.818 0 5.104 2.286 5.104 5.104h0z" class="J"/><path d="M275.23 198.507c-3.93 1.645-8.248 1.772-12.48 0 .216-.897.18-1.48.18-2.62l.024-.06c3.84 1.594 8.224 1.597 12.072 0l.024.06c0 1.14-.036 1.722.18 2.62z" class="R"/><path d="M273.675 208.67c-.166 1.025-.12.322-.12 14.3h-9.088l-.134-14.392c2.89 1.32 6.73 1.23 9.343.082z" class="S"/><path d="M266.54 222.98h-2.074l-.134-14.392c.678.3 1.4.543 2.165.7.06.64.043-.2.043 13.69h0z" fill="#bdeffc"/><path d="M260.534 207.697c-6.566.044-11.938 5.223-11.938 11.79v3.494h-2.87c-.705 0-1.276-.57-1.276-1.276v-6.322c0-6.577 5.38-11.77 11.956-11.832a6.59 6.59 0 0 0 4.04-1.424c.66.66 1.3 1.258 1.877 1.97 1.122 1.382.303 3.588-1.79 3.602h0z" fill="#ff6d7a"/><path d="M277.466 207.717c6.566.044 11.938 5.223 11.938 11.79V223h2.87c.705 0 1.276-.57 1.276-1.276V215.4c0-6.576-5.38-11.77-11.956-11.83a6.59 6.59 0 0 1-4.04-1.424c-.66.66-1.3 1.258-1.877 1.97-1.122 1.382-.303 3.588 1.79 3.602h0z" fill="#e84857"/><path d="M265.415 191.432c2.597 1.624.55 5.607-2.29 4.467-5.834-2.342-9.923-8.03-9.923-14.663v-10.35c0-1.608.496-3.1 1.343-4.333 1.04-1.51 3.442-.843 3.442 1.143v10.35c0 5.826 3.062 10.652 7.43 13.385h0z" class="T"/><path d="M283.733 153.784l-20.536.001a9.2 9.2 0 0 0-9.198 9.197v4.062a1.97 1.97 0 0 1-.163.786 7.63 7.63 0 0 0-.635 3.056v5.984c0 2.56-3.852 2.707-3.982.15-.008-.154-.005-23.07-.005-22.917 0-2.82 2.285-5.104 5.104-5.104l29.57.005c3.085.134 2.933 4.78-.154 4.78h0z" class="H"/><path d="M143.56 215.463v6.26c0 .705-.57 1.276-1.276 1.276H95.716c-.705 0-1.276-.57-1.276-1.276v-6.26c0-3.903 1.88-7.367 4.784-9.536V164.87c0-8.764 7.105-15.87 15.87-15.87h7.974c8.763 0 15.868 7.105 15.868 15.87v41.18c2.814 2.174 4.625 5.582 4.625 9.413z" class="K"/><path d="M143.56 215.463v6.26c0 .705-.57 1.276-1.276 1.276H95.716c-.705 0-1.276-.57-1.276-1.276v-6.26c0-6.56 5.318-11.893 11.892-11.893a6.59 6.59 0 0 0 3.903-1.272l.287 1.858 7.697 5.96c.46.356 1.102.356 1.562 0l7.697-5.96.287-1.858a6.59 6.59 0 0 0 3.903 1.272 11.9 11.9 0 0 1 11.892 11.893h0z" fill="#ffa4b8"/><path d="M127.478 204.156L124.576 223h-11.152l-2.902-18.844 7.697 5.96c.46.356 1.102.356 1.562 0l7.697-5.96z" class="S"/><path d="M134.79 181.236v-7.864c0-.537-.334-1.016-.838-1.2a12.61 12.61 0 0 1-6.625-5.52c-.44-.754-1.485-.864-2.056-.204-5.256 6.073-12.503 10.088-20.935 11.114-.64.078-1.124.62-1.124 1.266v2.407c0 6.582 4.027 12.223 9.753 14.593l-.024.06v1.09c0 3.652-2.968 6.593-6.608 6.593-2.665 0-5.124.877-7.108 2.357V164.87c0-8.764 7.105-15.87 15.87-15.87h7.974c8.764 0 15.868 7.105 15.868 15.87v41.18c-2.01-1.555-4.53-2.48-7.267-2.48a6.6 6.6 0 0 1-6.608-6.593v-1.09l-.024-.06c5.726-2.37 9.753-8.01 9.753-14.593h0z" class="O"/><path d="M133.95 172.174a1.27 1.27 0 0 1 .838 1.198v7.864c0 6.582-4.027 12.223-9.753 14.593-10.353 4.298-21.825-3.337-21.825-14.593v-2.407c0-.646.483-1.188 1.124-1.266 8.427-1.025 15.675-5.037 20.935-11.114a1.27 1.27 0 0 1 2.056.204c1.505 2.58 3.847 4.516 6.625 5.52z" class="L"/><use xlink:href="#G" class="M"/><path d="M129.043 150.164c1.944.79 1.3 3.676-.798 3.625l-8.368-.005c-8.764 0-15.868 7.105-15.868 15.87v7.08c0 1.162-.798 1.194-.798 2.096 0 2.55-.12 4.447.707 7.093a1.95 1.95 0 0 1 .091.577v15.83c0 .817-.52 1.554-1.298 1.803-1.268.405-2.443 1.017-3.487 1.796v-41.06c0-8.764 7.105-15.87 15.87-15.87h7.974a15.81 15.81 0 0 1 5.976 1.164h0z" class="P"/><path d="M115.5 191.326c2.66 1.656.56 5.74-2.35 4.575-5.906-2.368-9.93-8.1-9.93-14.665v-2.406c0-.645.48-1.188 1.12-1.266.605-.073 1.23-.166 1.87-.28.92-.163 1.788.495 1.87 1.428.505 5.835 3.46 10.15 7.418 12.614h0z" class="Q"/><path d="M111.144 208.192c-7.478.192-12.08 5.823-12.08 11.896V223h-3.35c-.705 0-1.276-.57-1.276-1.276v-6.26c0-6.56 5.318-11.893 11.892-11.893a6.59 6.59 0 0 0 3.903-1.272l.91 5.894z" fill="#ffb1bf"/><path d="M126.856 208.192c7.478.192 12.08 5.823 12.08 11.896V223h3.35c.705 0 1.276-.57 1.276-1.276v-6.26c0-6.56-5.317-11.893-11.892-11.893a6.59 6.59 0 0 1-3.903-1.272l-.91 5.894z" fill="#ff99af"/><path d="M116.614 223h-3.2l-2.902-18.844 3.622 2.803 2.47 16.04z" fill="#bdeffc"/><g clip-path="url(#B)"><g class="K"><path d="M595.717 405.693l-3.78 3.77c1.032 1.762 1.623 3.813 1.623 6v6.26c0 .705-.57 1.276-1.276 1.276h-46.57c-.704 0-1.275-.57-1.275-1.276v-6.26c0-2.188.59-4.24 1.623-6-.043-.027.26.27-3.78-3.77a4.18 4.18 0 0 1-.325-5.545c1.6-2.05 1.136-4.412-.305-5.77-1.58-1.492-1.755-3.944-.403-5.644l1.837-2.3a4.18 4.18 0 0 0 .737-3.784l-1.187-4.024a4.18 4.18 0 0 1 2.425-5.051l1.567-.643c1.57-.642 2.595-2.17 2.595-3.867v-4.107A15.95 15.95 0 0 1 565.172 349h7.656a15.95 15.95 0 0 1 15.948 15.948v4.107c0 1.697 1.025 3.225 2.595 3.867l1.567.643a4.18 4.18 0 0 1 2.424 5.051l-1.186 4.024a4.18 4.18 0 0 0 .737 3.784l1.837 2.3a4.18 4.18 0 0 1-.404 5.644 4.18 4.18 0 0 0-.413 5.631c1.526 1.952 1.202 4.266-.216 5.684h0z"/><path d="M542.283 405.693l3.78 3.77c-1.032 1.762-1.623 3.813-1.623 6v6.26c0 .705.57 1.276 1.276 1.276h46.57c.704 0 1.275-.57 1.275-1.276v-6.26c0-2.188-.59-4.24-1.623-6 .043-.027-.26.27 3.78-3.77a4.18 4.18 0 0 0 .325-5.545c-1.6-2.05-1.136-4.412.305-5.77 1.58-1.492 1.755-3.944.403-5.644l-1.837-2.3a4.18 4.18 0 0 1-.737-3.784l1.187-4.024a4.18 4.18 0 0 0-2.425-5.051l-1.567-.643c-1.57-.642-2.595-2.17-2.595-3.867v-4.107A15.95 15.95 0 0 0 572.828 349h-7.656a15.95 15.95 0 0 0-15.948 15.948v4.107c0 1.697-1.025 3.225-2.595 3.867l-1.567.643a4.18 4.18 0 0 0-2.424 5.051l1.186 4.024a4.18 4.18 0 0 1-.737 3.784l-1.837 2.3a4.18 4.18 0 0 0 .404 5.644 4.18 4.18 0 0 1 .413 5.631c-1.526 1.952-1.202 4.266.216 5.684h0z"/></g><path d="M554.342 377.52c-.645.074-1.13.618-1.13 1.268v2.447c0 6.58 4.027 12.223 9.753 14.593l-.024.06v1.09a6.6 6.6 0 0 1-6.531 6.593c-4.477 0-8.28 2.363-10.346 5.892-.044-.028-3.743-3.732-3.78-3.77a4.18 4.18 0 0 1-.325-5.545c1.6-2.05 1.136-4.412-.305-5.77-1.58-1.492-1.755-3.944-.403-5.644l1.837-2.3a4.18 4.18 0 0 0 .737-3.784l-1.187-4.024a4.18 4.18 0 0 1 2.425-5.051l1.567-.643c1.57-.642 2.595-2.17 2.595-3.867v-4.107A15.95 15.95 0 0 1 565.172 349h7.656a15.95 15.95 0 0 1 15.948 15.948v4.107c0 1.697 1.025 3.225 2.595 3.867l1.567.643a4.18 4.18 0 0 1 2.424 5.051l-1.186 4.024a4.18 4.18 0 0 0 .737 3.784l1.837 2.3a4.18 4.18 0 0 1-.404 5.644c-1.473 1.388-1.88 3.755-.304 5.77a4.18 4.18 0 0 1-.325 5.545l-3.78 3.77c-2.05-3.5-5.836-5.892-10.346-5.892-3.606-.042-6.53-2.964-6.53-6.593v-1.09l-.024-.06c5.726-2.37 9.753-8.01 9.753-14.59v-7.864c0-.537-.334-1.016-.838-1.2-2.775-1.003-5.118-2.937-6.625-5.52-.44-.754-1.496-.843-2.067-.18-5.34 6.19-12.75 10.117-20.917 11.05h0z" fill="#fe4f60"/><path d="M583.95 372.174a1.27 1.27 0 0 1 .838 1.198v7.864c0 6.582-4.027 12.222-9.753 14.59-10.356 4.3-21.825-3.338-21.825-14.59v-2.448c0-.65.487-1.193 1.13-1.267 8.153-.93 15.57-4.85 20.917-11.05.57-.66 1.627-.573 2.067.18 1.505 2.58 3.847 4.516 6.625 5.52h0z" class="L"/><path d="M578.43 350.013c2.038.764 1.454 3.785-.723 3.772l-7.75-.001c-8.808 0-15.948 7.14-15.948 15.95v4.106a4.18 4.18 0 0 1-2.595 3.868l-1.568.643a4.18 4.18 0 0 0-2.424 5.05l1.187 4.024c.385 1.306.1 2.72-.737 3.785l-1.838 2.31a4.18 4.18 0 0 0 .404 5.644 4.18 4.18 0 0 1 .413 5.631c-1.126 1.44-1.25 3.012-.676 4.36.065.153-.13.294-.253.173l-3.64-3.632c-1.4-1.4-1.767-3.7-.216-5.684a4.18 4.18 0 0 0-.414-5.631c-1.58-1.49-1.755-3.944-.403-5.644l1.837-2.3a4.18 4.18 0 0 0 .737-3.784l-1.187-4.024a4.18 4.18 0 0 1 2.425-5.051l1.567-.643c1.57-.642 2.595-2.17 2.595-3.867v-4.107A15.95 15.95 0 0 1 565.172 349h7.656c1.955 0 3.846.355 5.602 1.013h0z" fill="#ff6d7a"/><path d="M565.407 391.442c2.583 1.635.564 5.593-2.273 4.456-5.83-2.334-9.923-8.028-9.923-14.662v-2.448c0-.65.487-1.193 1.13-1.266a33.32 33.32 0 0 0 1.909-.276c.897-.157 1.74.49 1.815 1.397.48 5.908 3.387 10.295 7.34 12.8h0z" class="Q"/><path d="M575.24 398.507c-3.93 1.644-8.248 1.772-12.482 0 .217-.898.18-1.48.18-2.62l.024-.06c3.84 1.594 8.224 1.597 12.072 0l.024.06c0 1.14-.036 1.722.18 2.62z" class="M"/></g><path d="M443.56 215.463v6.26c0 .705-.57 1.276-1.276 1.276h-46.57c-.705 0-1.276-.57-1.276-1.276v-6.26c0-4.815 2.863-8.963 6.98-10.834-1.68-1.336-4.24-3.132-6.102-6.996a16.86 16.86 0 0 1 1.155-16.677 16.41 16.41 0 0 0 2.752-9.097v-6.91A15.95 15.95 0 0 1 415.173 149h7.655a15.95 15.95 0 0 1 15.948 15.948c0 7.318-.18 8.752.703 11.662 1.245 4.114 2.89 4.624 4.156 8.81 1.993 6.583-.21 13.76-5.64 18.084l-1.413 1.124c4.116 1.87 6.98 6.02 6.98 10.834z" class="K"/><path d="M443.56 215.463v6.26c0 .705-.572 1.276-1.276 1.276h-46.57c-.705 0-1.276-.57-1.276-1.276v-6.26c0-6.565 5.322-11.893 11.892-11.893.978 0 1.906-.212 2.74-.59l.04.086 9.107 7.05c.46.356 1.102.356 1.562 0l9.107-7.05.04-.086c.834.38 1.762.59 2.74.59 6.545 0 11.893 5.303 11.893 11.893h0z" fill="#ffaa64"/><path d="M433.58 172.326c.678.038 1.208.595 1.208 1.273v7.637c0 6.582-4.027 12.223-9.752 14.593-10.354 4.298-21.826-3.337-21.826-14.593V173.7c0-.748.64-1.338 1.386-1.27a33.01 33.01 0 0 0 21.518-5.502c.72-.485 1.7-.126 1.938.712.787 2.902 2.934 4.53 5.528 4.677z" class="L"/><path d="M437.995 203.505l-1.413 1.124a11.87 11.87 0 0 0-4.914-1.059 6.6 6.6 0 0 1-6.608-6.593v-1.09l-.023-.06c5.725-2.37 9.752-8.01 9.752-14.593V173.6c0-.678-.53-1.235-1.208-1.273-2.578-.147-4.736-1.757-5.528-4.677-.228-.837-1.22-1.197-1.938-.712a33.01 33.01 0 0 1-21.518 5.502c-.745-.067-1.386.524-1.386 1.27v7.526c0 6.582 4.027 12.223 9.753 14.593l-.024.06v1.09a6.6 6.6 0 0 1-6.608 6.593c-1.752 0-3.416.38-4.913 1.06l-1.413-1.124c-6.86-5.466-8.387-15.262-3.534-22.55a16.41 16.41 0 0 0 2.752-9.097v-6.91c0-8.808 7.14-15.948 15.95-15.948h7.655a15.95 15.95 0 0 1 15.948 15.948v6.91c0 3.233.957 6.4 2.753 9.097 4.87 7.314 3.3 17.11-3.534 22.55h0z" class="J"/><path d="M425.24 198.507c-3.93 1.644-8.247 1.772-12.48 0 .216-.898.18-1.48.18-2.62l.024-.06c3.84 1.594 8.224 1.597 12.073 0l.024.06c0 1.14-.037 1.722.18 2.62z" class="M"/><path d="M430.032 150.716c1.63.826.92 3.312-.897 3.14l-1.523-.072h-7.655c-8.808 0-15.948 7.14-15.948 15.95v1.94c0 1.146-.798 1.11-.798 2.037 0 8.424.034 7.89-.09 8.255-1.25 3.68-2.754 4.213-3.973 8.24-.664 2.193-.86 4.453-.63 6.645.188 1.79-2.304 2.645-3.202.782-2.576-5.336-2.172-11.68 1.154-16.677 1.796-2.696 2.753-5.86 2.753-9.097v-6.91c0-8.808 7.14-15.948 15.948-15.948h7.656a15.89 15.89 0 0 1 7.204 1.716h0z" class="H"/><path d="M415.973 191.813c2.383 1.595.567 5.284-2.138 4.334-5.947-2.086-10.624-7.636-10.624-14.91V173.7c0-.748.64-1.338 1.386-1.27a33.03 33.03 0 0 0 2.007.121c1.31.04 2.35 1.123 2.35 2.434v3.69c0 5.554 2.832 10.324 7.02 13.128z" class="Q"/><path d="M411.743 205.1c.756.586.357 1.815-.6 1.818-6.75.026-11.918 5.447-11.918 11.893V223h-3.508c-.705 0-1.276-.57-1.276-1.276v-6.26c0-6.565 5.322-11.893 11.892-11.893.978 0 1.906-.212 2.74-.59l.04.086 2.63 2.036z" fill="#ffbd7b"/><path d="M426.258 205.1c-.757.586-.357 1.815.6 1.818 6.75.026 11.918 5.447 11.918 11.893V223h3.51c.704 0 1.275-.57 1.275-1.276v-6.26c0-6.565-5.322-11.893-11.892-11.893-.978 0-1.906-.212-2.74-.59l-.04.086-2.63 2.036z" fill="#faa157"/><g clip-path="url(#C)"><path d="M296.673 386.5c-1.304 1-1.82 2.67-1.36 4.186 1.563 5.182-2.44 10.7-7.85 10.805a3.85 3.85 0 0 0-3.561 2.587 8 8 0 0 1-.262.656c5.635.94 9.92 5.84 9.92 11.728v6.26c0 .705-.57 1.276-1.276 1.276h-46.568c-.705 0-1.276-.57-1.276-1.276v-6.26c0-5.9 4.287-10.79 9.92-11.728a8 8 0 0 1-.262-.656 3.85 3.85 0 0 0-3.561-2.587c-5.41-.115-9.413-5.623-7.85-10.805.466-1.545-.075-3.2-1.36-4.186-4.31-3.273-4.31-10.082 0-13.355 1.285-.976 1.826-2.64 1.36-4.186-1.563-5.182 2.44-10.7 7.85-10.805a3.85 3.85 0 0 0 3.561-2.587c1.78-5.1 8.256-7.213 12.7-4.127a3.85 3.85 0 0 0 4.402 0c4.445-3.088 10.92-.983 12.7 4.127a3.85 3.85 0 0 0 3.561 2.587c5.41.115 9.413 5.623 7.85 10.805-.466 1.545.075 3.2 1.36 4.186 4.3 3.273 4.3 10.082 0 13.355h0z" class="O"/><path d="M284.79 370.534v4.223a46.74 46.74 0 0 0-31.578 0v-4.223c0-2.306 1.544-4.335 3.772-4.927 7.874-2.096 16.16-2.096 24.034 0 2.228.592 3.772 2.62 3.772 4.927z" fill="#befa91"/><path d="M284.79 374.757v7.478c0 6.582-4.027 12.223-9.753 14.592-10.353 4.298-21.825-3.336-21.825-14.592v-7.478a46.74 46.74 0 0 1 31.578 0z" class="P"/><path d="M284.79 382.235v-11.7c0-2.306-1.544-4.335-3.772-4.927-7.874-2.096-16.16-2.097-24.034 0-2.228.592-3.772 2.62-3.772 4.927v11.7c0 6.582 4.027 12.223 9.753 14.592l-.024.06v1.09c0 2.7-1.635 5.034-3.97 6.048-1.812.788-2.634.375-4.61.7a8 8 0 0 1-.262-.656 3.85 3.85 0 0 0-3.561-2.587c-5.41-.115-9.413-5.623-7.85-10.805.466-1.545-.075-3.2-1.36-4.186-4.3-3.273-4.3-10.082 0-13.355 1.285-.976 1.826-2.64 1.36-4.186-1.563-5.182 2.44-10.7 7.85-10.805a3.85 3.85 0 0 0 3.561-2.587c1.78-5.1 8.256-7.213 12.7-4.127a3.85 3.85 0 0 0 4.402 0c4.445-3.088 10.92-.983 12.7 4.127a3.85 3.85 0 0 0 3.561 2.587c5.41.115 9.413 5.623 7.85 10.805-.466 1.545.075 3.2 1.36 4.186 4.31 3.273 4.31 10.082 0 13.355-1.304 1-1.82 2.67-1.36 4.186 1.563 5.182-2.44 10.7-7.85 10.805a3.85 3.85 0 0 0-3.561 2.587 8 8 0 0 1-.262.656c-1.972-.334-2.798.077-4.61-.7-2.336-1.014-3.97-3.338-3.97-6.048v-1.09l-.024-.06c5.726-2.37 9.753-8 9.753-14.592h0z" class="J"/><path d="M275.24 399.507c-3.93 1.645-8.247 1.772-12.48 0 .216-.897.18-1.48.18-2.62l.024-.06c3.84 1.594 8.224 1.597 12.072 0l.024.06c0 1.14-.036 1.722.18 2.62z" class="R"/><path d="M275.517 350.006c3.583-.14 5.082 4.478 2.12 6.5-1.514 1.033-3.22.9-4.458.04-4.444-3.086-10.92-.983-12.7 4.127a3.85 3.85 0 0 1-3.561 2.587c-5.41.115-9.413 5.623-7.85 10.805.466 1.545-.075 3.2-1.36 4.186-4.31 3.273-4.31 10.083 0 13.355 1.206.916 1.853 2.508 1.343 4.244-.847 2.885-4.842 3.196-6.023.43-.734-1.716-.917-3.676-.34-5.592.466-1.545-.075-3.2-1.36-4.186-4.3-3.273-4.3-10.083 0-13.355 1.285-.976 1.826-2.64 1.36-4.187-1.563-5.18 2.44-10.7 7.85-10.804a3.85 3.85 0 0 0 3.561-2.587c1.78-5.1 8.256-7.214 12.7-4.128a3.85 3.85 0 0 0 4.402 0c1.318-.916 2.815-1.375 4.316-1.434h0z" class="H"/><path d="M265.425 392.43c2.596 1.624.55 5.606-2.29 4.466-5.834-2.34-9.923-8.03-9.923-14.662v-7.478c1.314-.472 2.922-.983 4.785-1.432v5.72c0 5.825 3.062 10.653 7.43 13.386h0z" class="T"/><path d="M257.996 365.35v7.974c-1.863.45-3.47.96-4.785 1.432v-4.223c0-2.303 1.54-4.33 3.764-4.923 0-.01 1.012-.258 1.02-.26h0z" fill="#d0ffad"/></g><g clip-path="url(#D)"><path d="M143.56 416.428v6.296c0 .705-.57 1.276-1.276 1.276H95.717c-.705 0-1.276-.57-1.276-1.276v-6.296c0-6.577 5.38-11.793 11.957-11.857a6.61 6.61 0 0 0 5.352-2.815l-.01-.01c1.322-1.88 1.19-3.575 1.193-4.863l.023-.06c-5.717-2.37-9.74-8.005-9.742-14.577v-.52c-2.29 0-3.985-1.816-3.984-3.915l.01-15.543c.002-2.378 1.93-4.306 4.307-4.304A12.69 12.69 0 0 1 115.334 350l17.154.013c.892.001 1.51.894 1.192 1.728l-1.093 2.88c-.263.697.123 1.47.838 1.677l.883.257c2.648.77 4.642 3.182 4.642 6.146l-.008 14.878a4.15 4.15 0 0 1-4.151 4.148v.52c-.004 6.586-4.04 12.228-9.774 14.6v.002l.02.044c0 1.23-.144 2.96 1.19 4.864a6.67 6.67 0 0 0 5.375 2.823c6.577.064 11.957 5.28 11.957 11.857h0z" class="K"/><path d="M138.95 362.702l-.008 14.878a4.15 4.15 0 0 1-4.151 4.148l.007-9.83c.003-4.227-3.42-7.656-7.65-7.66l-16.266-.012a7.66 7.66 0 0 0-7.662 7.651l-.006 9.85c-2.29 0-3.985-1.816-3.984-3.915l.01-15.543c.002-2.378 1.93-4.306 4.307-4.304A12.69 12.69 0 0 1 115.334 350l17.154.013c.893.001 1.51.894 1.192 1.728l-1.092 2.88c-.264.697.12 1.47.836 1.678l.884.257c2.648.77 4.642 3.182 4.642 6.146h0z" class="J"/><path d="M127.15 364.24c4.228.003 7.652 3.432 7.65 7.66l-.007 10.35c-.004 6.586-4.04 12.228-9.774 14.6v.002c-10.377 4.28-21.797-3.376-21.802-14.592l.006-10.37a7.66 7.66 0 0 1 7.662-7.651l16.266.012z" class="L"/><path d="M125.24 399.508a15.83 15.83 0 0 1-12.48 0c.216-.898.18-1.48.18-2.62l.024-.06c3.84 1.594 8.224 1.597 12.072 0l.024.06c0 1.14-.036 1.722.18 2.62z" class="M"/><path d="M115.425 392.433c2.596 1.624.55 5.606-2.292 4.466-5.843-2.345-9.92-8.038-9.92-14.66v-10.35c0-1.608.496-3.1 1.343-4.333 1.062-1.543 3.453-.778 3.44 1.096v10.397c0 5.823 3.06 10.652 7.43 13.385z" class="Q"/><path d="M133.68 351.74l-1.142 3.053-12.42-.01a12.69 12.69 0 0 0-11.348 6.999c-.27.535-.755.937-1.34 1.062a4.31 4.31 0 0 0-3.402 4.209l-.002 1.412a7.63 7.63 0 0 0-.803 3.412l-.004 5.983c-.002 2.583-3.99 2.755-3.987-.048l.01-15.543c.002-2.378 1.93-4.306 4.307-4.304A12.69 12.69 0 0 1 115.334 350l17.154.013c.892.001 1.51.894 1.192 1.728h0z" class="H"/></g><g clip-path="url(#E)"><path d="M443.56 416.463v6.26c0 .705-.57 1.276-1.276 1.276h-46.566c-.705 0-1.276-.57-1.276-1.276v-6.26c0-6.543 5.287-11.952 11.83-11.892a6.61 6.61 0 0 0 2.698-.545c0 .06.376.778.45.91a11.34 11.34 0 0 1-.448-.904c2.334-1.016 3.97-3.338 3.97-6.047v-1.1l.024-.06c-5.725-2.37-9.752-8.01-9.752-14.592v-.498c-2.273 0-3.987-1.796-3.987-3.913v-6.628c-.05-2.307.055-10.445 5.933-16.11 6.835-6.588 17.666-6.05 25.512-2.525a.32.32 0 0 1-.011.587l-2.046.842a.32.32 0 0 0 .088.612l.993.107c5.277.565 9.68 3.68 11.924 7.397a.34.34 0 0 1-.046.384c-1.692 1.79-2.638 4.164-2.638 6.632v8.47c0 2.3-1.856 4.146-4.146 4.146v.498c0 6.58-4.027 12.222-9.752 14.592l.024.06v1.1c0 2.71 1.635 5.03 3.97 6.047.826.354 1.742.548 2.7.54 6.543-.06 11.83 5.35 11.83 11.892h0z" class="M"/><path d="M434.788 382.242A15.79 15.79 0 0 1 419 398.029a15.79 15.79 0 0 1-15.788-15.787v-10.35c0-3.254 3.766-4.853 6.14-2.806 2.654 2.287 5.838 3.79 9.248 4.4.94.17 1.728-.72 1.44-1.63-.195-.62-.28-1.263-.254-1.904.04-.983 1.154-1.544 1.973-1 3.476 2.31 7.526 3.497 11.735 3.44.712-.01 1.293.563 1.293 1.275v8.574z" class="K"/><path d="M441.618 362.11a.34.34 0 0 1-.046.385 9.65 9.65 0 0 0-2.638 6.632v8.47c0 2.3-1.856 4.146-4.146 4.146v-8.076c0-.712-.58-1.285-1.293-1.275-4.206.058-8.258-1.13-11.735-3.44-.82-.544-1.933.017-1.973 1a5.61 5.61 0 0 0 .254 1.904c.287.9-.5 1.8-1.44 1.63-3.407-.61-6.592-2.112-9.25-4.4-2.374-2.047-6.14-.45-6.14 2.806v9.85c-2.273 0-3.987-1.797-3.987-3.914v-6.627c-.05-2.308.055-10.446 5.933-16.112 6.834-6.588 17.667-6.048 25.512-2.524a.32.32 0 0 1-.011.587l-2.046.842a.32.32 0 0 0 .087.612l.994.107c5.277.564 9.678 3.68 11.924 7.396h0z" fill="#ffec8f"/><path d="M425.24 399.508c-3.93 1.645-8.246 1.772-12.48 0 .216-.897.18-1.478.18-2.618l.024-.06c3.84 1.594 8.224 1.597 12.072 0l.024.06c0 1.14-.036 1.72.18 2.618z" fill="#f7c388"/><path d="M430.66 353.154c-.93.383-1.318.622-2.03.49-11.793-2.153-21.703 3.213-24.098 14.934-.07.335-.23.64-.454.9-.524.6-.854 1.408-.864 2.34v6.058c0 2.56-3.852 2.708-3.982.15-.008-.16-.005.26-.005-6.825-.05-2.308.055-10.445 5.933-16.112 6.835-6.587 17.666-6.048 25.512-2.524a.32.32 0 0 1-.011.587h0z" fill="#fff2b3"/><path d="M415.427 392.44c2.595 1.622.547 5.604-2.293 4.464-5.84-2.344-9.922-8.035-9.922-14.66l.007-10.616c.18-3.055 4.776-2.863 4.777.197v7.23c0 5.82 3.06 10.653 7.43 13.387h0z" class="L"/></g><path d="M596.673 185.5c-1.307.992-1.82 2.674-1.36 4.186 1.563 5.182-2.44 10.7-7.85 10.805a3.85 3.85 0 0 0-3.561 2.587 7.96 7.96 0 0 1-.262.654 9.89 9.89 0 0 0-.484-.07 10.84 10.84 0 0 1 .484.072v-.002c5.694.963 9.92 5.885 9.92 11.73v6.26c0 .705-.57 1.276-1.276 1.276h-46.568c-.705 0-1.276-.57-1.276-1.276v-6.26c0-5.845 4.226-10.767 9.92-11.73v.002a10.84 10.84 0 0 1 .484-.072 9.89 9.89 0 0 0-.484.07 7.96 7.96 0 0 1-.262-.654 3.85 3.85 0 0 0-3.561-2.587c-5.41-.115-9.413-5.623-7.85-10.805.466-1.545-.075-3.2-1.36-4.186-4.3-3.273-4.3-10.082 0-13.355 1.285-.976 1.826-2.64 1.36-4.186-1.563-5.182 2.44-10.7 7.85-10.805a3.85 3.85 0 0 0 3.561-2.587c1.78-5.1 8.256-7.213 12.7-4.127a3.85 3.85 0 0 0 4.402 0c4.445-3.088 10.92-.983 12.7 4.127a3.85 3.85 0 0 0 3.561 2.587c5.41.115 9.413 5.623 7.85 10.805-.466 1.545.075 3.2 1.36 4.186 4.31 3.273 4.31 10.082 0 13.355h0z" class="O"/><path d="M553.21 181.237c0 6.58 4.027 12.222 9.753 14.592l-.024.06v1.09a6.6 6.6 0 0 1-6.608 6.593c-.67 0-1.33.056-1.972.165a8 8 0 0 1-.262-.656 3.85 3.85 0 0 0-3.561-2.587c-5.41-.115-9.413-5.623-7.85-10.805.466-1.545-.075-3.2-1.36-4.186-4.3-3.273-4.3-10.082 0-13.355 1.285-.976 1.826-2.64 1.36-4.186-1.563-5.182 2.44-10.7 7.85-10.805a3.85 3.85 0 0 0 3.561-2.587c1.78-5.1 8.256-7.213 12.7-4.127a3.85 3.85 0 0 0 4.402 0c4.445-3.088 10.92-.983 12.7 4.127a3.85 3.85 0 0 0 3.561 2.587c5.41.115 9.413 5.623 7.85 10.805-.466 1.545.075 3.2 1.36 4.186 4.31 3.273 4.31 10.082 0 13.355-1.304 1-1.82 2.67-1.36 4.186 1.563 5.182-2.44 10.7-7.85 10.805a3.85 3.85 0 0 0-3.561 2.587 8 8 0 0 1-.262.656c-.64-.11-1.3-.165-1.972-.165a6.6 6.6 0 0 1-6.608-6.593v-1.09l-.024-.06c5.726-2.37 9.753-8.01 9.753-14.592v-6.522c0-6.342-5.142-11.484-11.485-11.484h-4.436c-.53 0-1.005.33-1.193.826-2.18 5.746-6.786 10.302-13.554 12.362a1.28 1.28 0 0 0-.91 1.222v3.596z" class="J"/><path d="M584.79 174.714v6.523c0 8.723-7.073 15.788-15.79 15.788s-15.79-7.065-15.79-15.788v-3.596a1.28 1.28 0 0 1 .91-1.222c6.768-2.06 11.375-6.615 13.553-12.362.19-.497.662-.826 1.194-.826h4.438c6.342 0 11.483 5.14 11.483 11.483z" class="P"/><path d="M593.56 215.463v6.26c0 .705-.57 1.276-1.276 1.276h-46.568c-.705 0-1.276-.57-1.276-1.276v-6.26c0-6.568 5.324-11.893 11.892-11.893.978 0 1.906-.212 2.74-.59l.04.086 9.106 7.05c.46.356 1.103.356 1.563 0l9.107-7.05.04-.086c.834.38 1.762.59 2.74.59 6.6 0 11.892 5.356 11.892 11.893z" fill="#ffa4b8"/><path d="M575.24 198.507c-3.93 1.645-8.247 1.772-12.48 0 .217-.897.18-1.48.18-2.62l.024-.06c3.84 1.594 8.224 1.597 12.072 0l.024.06c0 1.14-.036 1.722.18 2.62z" class="R"/><path d="M561.743 205.1c.756.586.356 1.815-.6 1.818-6.75.026-11.918 5.447-11.918 11.893V223h-3.508c-.705 0-1.276-.57-1.276-1.276v-6.26c0-6.565 5.322-11.893 11.892-11.893.978 0 1.906-.212 2.74-.59l.04.086 2.63 2.036z" fill="#ffb1bf"/><path d="M576.257 205.1c-.756.586-.356 1.815.6 1.818 6.75.026 11.918 5.447 11.918 11.893V223h3.508c.705 0 1.276-.57 1.276-1.276v-6.26c0-6.565-5.322-11.893-11.892-11.893-.978 0-1.906-.212-2.74-.59l-.04.086-2.63 2.036z" fill="#ff99af"/><path d="M576.27 149c3.202.156 4.253 4.32 1.555 6.052l-.244.163a3.85 3.85 0 0 1-4.402 0c-4.444-3.086-10.92-.982-12.7 4.127a3.85 3.85 0 0 1-3.561 2.587c-5.41.115-9.412 5.624-7.85 10.805.466 1.545-.075 3.2-1.36 4.187-4.31 3.272-4.31 10.082 0 13.355 1.285.976 1.826 2.64 1.36 4.186-.963 3.196-5.198 3.224-6.235.31-.567-1.592-.666-3.36-.144-5.094.466-1.545-.075-3.2-1.36-4.186-4.31-3.273-4.31-10.082 0-13.355 1.285-.976 1.826-2.64 1.36-4.186-1.563-5.182 2.44-10.7 7.85-10.805a3.85 3.85 0 0 0 3.561-2.587c1.782-5.1 8.256-7.213 12.7-4.127a3.85 3.85 0 0 0 4.402 0c1.54-1.07 3.32-1.516 5.068-1.43h0z" class="H"/><path d="M565.376 191.5c2.573 1.582.567 5.525-2.237 4.4-5.91-2.37-9.928-8.103-9.928-14.664v-3.603a1.27 1.27 0 0 1 .907-1.214 24.93 24.93 0 0 0 .963-.315c1.34-.47 2.755.505 2.755 1.942 0 5.865 3.11 10.73 7.54 13.453z" class="T"/><path d="M570.754 180.897h-3.508c-.705 0-1.276-.57-1.276-1.276s.57-1.276 1.276-1.276h3.508c.705 0 1.276.572 1.276 1.276s-.57 1.276-1.276 1.276z" class="H"/><g class="S"><path d="M574.582 184.725c2.818 0 5.103-2.285 5.103-5.104s-2.285-5.103-5.103-5.103-5.104 2.285-5.104 5.103 2.285 5.104 5.104 5.104zm-11.164 0c2.82 0 5.103-2.285 5.103-5.104s-2.284-5.103-5.103-5.103-5.103 2.285-5.103 5.103 2.285 5.104 5.103 5.104z"/></g><g fill="#e8f8fc"><path d="M564.705 176.463c-2.356.944-3.7 3.617-3.042 6.068.24.9-.8 1.6-1.522 1a5.09 5.09 0 0 1-1.826-3.9c0-3.5 3.285-5.647 6.247-4.983a.96.96 0 0 1 .143 1.825h0zm11.165 0c-2.356.944-3.7 3.617-3.042 6.068.238.9-.8 1.6-1.522 1a5.09 5.09 0 0 1-1.827-3.9c0-3.5 3.286-5.647 6.248-4.983a.96.96 0 0 1 .143 1.825h0z"/></g></g><defs><clipPath id="A"><path d="M0 0h680v400H0z" class="G"/></clipPath><clipPath id="B"><path d="M532 349h74v74h-74z" class="G"/></clipPath><clipPath id="C"><path d="M232 350h74v74h-74z" class="G"/></clipPath><clipPath id="D"><path d="M82 350h74v74H82z" class="G"/></clipPath><clipPath id="E"><path d="M382 350h74v74h-74z" class="G"/></clipPath><path id="F" d="M312.5 386c0 24.024-19.476 43.5-43.5 43.5s-43.5-19.476-43.5-43.5 19.476-43.5 43.5-43.5 43.5 19.476 43.5 43.5z"/><path id="G" d="M125.24 198.507c-3.93 1.644-8.248 1.772-12.482 0 .217-.898.18-1.48.18-2.62l.024-.06c3.84 1.594 8.224 1.597 12.072 0l.024.06c0 1.14-.036 1.722.18 2.62z"/></defs></svg>