<svg xmlns="http://www.w3.org/2000/svg" xmlns:xlink="http://www.w3.org/1999/xlink" width="680" height="400" fill="none" xmlns:v="https://vecta.io/nano"><style><![CDATA[.B{fill:#fff}.C{fill:#5578f9}.D{fill:#edf1f5}.E{stroke:#d0d8e0}.F{fill:#000}.G{fill:#42434d}.H{fill:#4d4e59}.I{fill:#ffdfba}.J{fill:#ffebd2}.K{fill:#ffd6a6}.L{fill:#fff3e4}.M{fill:#bdccdb}.N{fill:#c79a83}.O{fill:#e0b7a3}.P{fill:#d6f4fc}.Q{fill:#eef0f2}.R{fill:#a07765}.S{fill:#f2d1c2}]]></style><g clip-path="url(#A)"><path d="M0 0h680v400H0z" class="B"/><path fill="#1d2630" d="M0 0h680v400H0z"/><rect x="266" y="12" width="148" height="23" rx="11.5" class="Q"/><rect x="282" y="48" width="117" height="19" rx="9.5" class="C"/><rect x="325" y="57" width="30" height="2" rx="1" fill="#cbd2d9"/><rect x="291.5" y="77.5" width="101" height="28" rx="4.5" fill="#bfddc1" stroke="#94acb8"/><rect x="48" y="125" width="142" height="190" rx="4" class="C"/><rect x="62" y="258" width="114" height="14" rx="7" class="Q"/><rect x="76" y="284" width="85" height="7" rx="3.5" class="M"/><path d="M162.5 188c0 24.024-19.476 43.5-43.5 43.5S75.5 212.024 75.5 188s19.476-43.5 43.5-43.5 43.5 19.476 43.5 43.5z" class="D E"/><rect x="198" y="125" width="142" height="190" rx="4" class="C"/><rect x="226" y="284" width="85" height="7" rx="3.5" class="M"/><use xlink:href="#I" class="D E"/><rect x="348" y="125" width="142" height="190" rx="4" class="C"/><rect x="376" y="284" width="85" height="7" rx="3.5" class="M"/><path d="M462 188c0 24.024-19.476 43.5-43.5 43.5S375 212.024 375 188s19.476-43.5 43.5-43.5S462 163.976 462 188z" class="D E"/><rect x="498" y="125" width="142" height="190" rx="4" class="C"/><rect x="526" y="284" width="85" height="7" rx="3.5" class="M"/><path d="M612.5 188c0 24.024-19.476 43.5-43.5 43.5s-43.5-19.476-43.5-43.5 19.476-43.5 43.5-43.5 43.5 19.476 43.5 43.5z" class="D E"/><g class="Q"><rect x="212" y="258" width="114" height="14" rx="7"/><rect x="362" y="258" width="114" height="14" rx="7"/><rect x="512" y="258" width="114" height="14" rx="7"/></g><rect x="48" y="323" width="142" height="190" rx="4" class="C"/><path d="M162.5 386c0 24.024-19.476 43.5-43.5 43.5S75.5 410.024 75.5 386s19.476-43.5 43.5-43.5 43.5 19.476 43.5 43.5z" class="D E"/><rect x="198" y="323" width="142" height="190" rx="4" class="C"/><path d="M312.5 386c0 24.024-19.476 43.5-43.5 43.5s-43.5-19.476-43.5-43.5 19.476-43.5 43.5-43.5 43.5 19.476 43.5 43.5z" class="D E"/><rect x="348" y="323" width="142" height="190" rx="4" class="C"/><path d="M462.5 386c0 24.024-19.476 43.5-43.5 43.5s-43.5-19.476-43.5-43.5 19.476-43.5 43.5-43.5 43.5 19.476 43.5 43.5z" class="D E"/><rect x="498" y="323" width="142" height="190" rx="4" class="C"/><path d="M612.5 386c0 24.024-19.476 43.5-43.5 43.5s-43.5-19.476-43.5-43.5 19.476-43.5 43.5-43.5 43.5 19.476 43.5 43.5z" class="D E"/><g clip-path="url(#B)"><path d="M595.75 184.52c-1.264.96-1.758 2.585-1.315 4.047 1.5 5.01-2.357 10.333-7.588 10.444a3.72 3.72 0 0 0-3.442 2.501 8.32 8.32 0 0 1-.253.632 9.29 9.29 0 0 0-.469-.068c.157.02.315.043.47.07v-.001c5.503.93 9.588 5.688 9.588 11.338v6.052c0 .682-.55 1.234-1.233 1.234h-45.014c-.682 0-1.234-.552-1.234-1.234v-6.052a11.5 11.5 0 0 1 9.589-11.338v.001c.154-.026.312-.05.47-.07a9.29 9.29 0 0 0-.469.068 8.32 8.32 0 0 1-.253-.632 3.72 3.72 0 0 0-3.442-2.501c-5.23-.11-9.098-5.435-7.588-10.444.45-1.494-.072-3.103-1.315-4.047-4.165-3.163-4.165-9.746 0-12.91 1.243-.943 1.765-2.553 1.315-4.047-1.5-5.008 2.357-10.333 7.588-10.444a3.72 3.72 0 0 0 3.442-2.5c1.722-4.94 7.98-6.973 12.278-4a3.72 3.72 0 0 0 4.254 0c4.297-2.985 10.556-.95 12.278 4a3.72 3.72 0 0 0 3.442 2.5c5.23.11 9.098 5.436 7.588 10.444-.45 1.494.072 3.104 1.315 4.047 4.165 3.163 4.165 9.746 0 12.91z" class="N"/><path d="M553.738 180.397c0 6.362 3.893 11.815 9.427 14.106l-.023.057v1.053a6.38 6.38 0 0 1-6.387 6.373c-.65 0-1.287.053-1.907.158a8.18 8.18 0 0 1-.253-.633 3.72 3.72 0 0 0-3.442-2.501c-5.23-.11-9.098-5.435-7.588-10.444.45-1.494-.072-3.103-1.315-4.047-4.165-3.163-4.165-9.746 0-12.91 1.243-.943 1.765-2.553 1.315-4.047-1.5-5.008 2.357-10.333 7.588-10.444a3.72 3.72 0 0 0 3.442-2.5c1.722-4.94 7.98-6.973 12.278-4a3.72 3.72 0 0 0 4.254 0c4.297-2.985 10.556-.95 12.278 4a3.72 3.72 0 0 0 3.442 2.5c5.23.11 9.098 5.436 7.588 10.444-.45 1.494.072 3.104 1.315 4.047 4.165 3.163 4.165 9.746 0 12.91-1.26.957-1.76 2.582-1.315 4.047 1.5 5.01-2.357 10.333-7.588 10.444a3.72 3.72 0 0 0-3.442 2.501 8.18 8.18 0 0 1-.253.633c-.62-.105-1.258-.158-1.907-.158a6.38 6.38 0 0 1-6.387-6.373v-1.053l-.023-.057c5.534-2.29 9.427-7.744 9.427-14.106v-6.303c0-6.13-4.97-11.1-11.1-11.1h-4.29c-.513 0-.97.318-1.153.798-2.106 5.555-6.56 9.958-13.1 11.95-.52.16-.88.636-.88 1.182v3.475z" class="G"/><path d="M584.262 174.092v6.305c0 8.432-6.837 15.262-15.262 15.262s-15.262-6.83-15.262-15.262v-3.475c0-.545.358-1.023.88-1.182 6.542-1.99 10.995-6.394 13.1-11.95a1.23 1.23 0 0 1 1.153-.798h4.3c6.13 0 11.1 4.97 11.1 11.1z" class="O"/><path d="M592.74 213.48v6.052c0 .682-.55 1.234-1.233 1.234h-45.014c-.682 0-1.233-.552-1.233-1.234v-6.052c0-6.35 5.146-11.495 11.495-11.495.945 0 1.842-.205 2.65-.572l.038.083 8.803 6.815c.445.344 1.065.344 1.5 0l8.803-6.815.038-.083c.807.367 1.704.572 2.65.572 6.38 0 11.495 5.176 11.495 11.495z" fill="#ffa4b8"/><path d="M575.032 197.09c-3.798 1.6-7.972 1.713-12.064 0 .21-.867.174-1.43.174-2.53l.023-.057c3.713 1.54 7.95 1.544 11.67 0l.023.057c0 1.102-.035 1.664.174 2.53z" class="R"/><path d="M561.985 203.465c.73.567.345 1.754-.58 1.758-6.526.024-11.52 5.264-11.52 11.496v4.048h-3.39c-.68 0-1.233-.552-1.233-1.234v-6.052a11.5 11.5 0 0 1 11.495-11.495c.945 0 1.842-.205 2.65-.572l.038.083 2.543 1.968z" fill="#ffb1bf"/><path d="M576.015 203.465c-.73.567-.345 1.754.58 1.758 6.526.024 11.52 5.264 11.52 11.496v4.048h3.39c.68 0 1.233-.552 1.233-1.234v-6.052a11.5 11.5 0 0 0-11.495-11.495c-.945 0-1.842-.205-2.65-.572l-.038.083-2.543 1.968z" fill="#ff99af"/><path d="M576.026 149.246c3.095.15 4.11 4.176 1.503 5.85l-.235.158a3.72 3.72 0 0 1-4.255 0c-4.296-2.983-10.555-.95-12.277 3.99-.514 1.474-1.883 2.468-3.443 2.5-5.23.11-9.098 5.435-7.587 10.444.45 1.494-.073 3.103-1.315 4.047-4.166 3.163-4.166 9.746 0 12.91 1.242.944 1.765 2.553 1.315 4.047-.932 3.09-5.025 3.117-6.028.298-.548-1.538-.644-3.248-.14-4.923.45-1.494-.072-3.103-1.315-4.047-4.165-3.163-4.165-9.746 0-12.91 1.243-.943 1.765-2.553 1.315-4.047-1.5-5.008 2.357-10.333 7.588-10.444a3.72 3.72 0 0 0 3.442-2.5c1.722-4.94 7.98-6.973 12.278-4a3.72 3.72 0 0 0 4.254 0c1.488-1.033 3.21-1.465 4.9-1.383z" class="H"/><path d="M565.497 190.318c2.487 1.53.548 5.34-2.162 4.254-5.712-2.29-9.597-7.833-9.597-14.175v-3.482a1.23 1.23 0 0 1 .877-1.174c.302-.09.612-.192.93-.304 1.295-.454 2.664.488 2.664 1.877 0 5.67 3.005 10.373 7.288 13.004z" class="S"/><g class="P"><path d="M574.396 183.77c2.724 0 4.933-2.2 4.933-4.933s-2.2-4.933-4.933-4.933-4.934 2.208-4.934 4.933 2.2 4.933 4.934 4.933zm-10.792 0c2.725 0 4.934-2.2 4.934-4.933s-2.2-4.933-4.934-4.933-4.933 2.208-4.933 4.933 2.2 4.933 4.933 4.933z"/></g><g fill="#e8f8fc"><use xlink:href="#J"/><path d="M575.64 175.783a5.03 5.03 0 0 0-2.94 5.865c.23.87-.782 1.546-1.47.967-1.08-.905-1.766-2.264-1.766-3.78 0-3.393 3.176-5.46 6.04-4.818a.93.93 0 0 1 .138 1.765z"/></g><path d="M563.604 183.77c2.295 0 4.228-1.575 4.777-3.7h1.237c.55 2.125 2.483 3.7 4.777 3.7a4.94 4.94 0 0 0 4.933-4.934 4.94 4.94 0 0 0-4.933-4.933c-2.294 0-4.228 1.575-4.777 3.7h-1.237c-.55-2.125-2.482-3.7-4.777-3.7a4.94 4.94 0 0 0-4.933 4.933 4.94 4.94 0 0 0 4.933 4.934zm10.792-7.4a2.47 2.47 0 0 1 2.466 2.466 2.47 2.47 0 0 1-2.466 2.467 2.47 2.47 0 0 1-2.467-2.467 2.47 2.47 0 0 1 2.467-2.466zm-10.792 0a2.47 2.47 0 0 1 2.467 2.466 2.47 2.47 0 0 1-2.467 2.467 2.47 2.47 0 0 1-2.466-2.467 2.47 2.47 0 0 1 2.466-2.466zm32.892 9.132c-.84.637-1.185 1.7-.88 2.71 1.186 3.933-.465 8.28-4.015 10.574-.572.37-1.336.205-1.705-.367s-.206-1.335.367-1.705c2.632-1.7 3.862-4.903 2.99-7.8-.595-1.974.108-4.138 1.75-5.385 3.522-2.675 3.52-8.272 0-10.945-1.642-1.247-2.345-3.41-1.75-5.385 1.274-4.224-2.006-8.76-6.433-8.854-2.062-.044-3.903-1.382-4.58-3.33-1.453-4.168-6.772-5.91-10.41-3.382a4.98 4.98 0 0 1-5.662 0c-3.625-2.518-8.952-.8-10.41 3.382-.68 1.947-2.52 3.285-4.58 3.33-4.413.093-7.712 4.614-6.433 8.854.595 1.974-.108 4.138-1.75 5.385-3.522 2.675-3.52 8.272 0 10.945 1.642 1.247 2.345 3.41 1.75 5.385-1.277 4.234 2.014 8.76 6.433 8.855 1.953.04 3.706 1.244 4.462 3.026.653-.056 1.115-.05 1.115-.05 2.843 0 5.153-2.29 5.153-5.14v-.326c-5.557-2.656-9.404-8.332-9.404-14.89 0-.68.552-1.233 1.233-1.233s1.234.552 1.234 1.233c0 7.736 6.293 14.03 14.028 14.03s14.028-6.293 14.028-14.03v-6.303a9.88 9.88 0 0 0-9.866-9.867h-4.288c-.745 1.974-1.77 3.8-3.066 5.453-5.098 6.503-12.498 7.883-15.443 8.174-.68.067-1.28-.43-1.348-1.106s.428-1.282 1.106-1.35c2.63-.26 9.232-1.486 13.744-7.24 1.81-2.307 3-4.986 3.565-7.8.136-.667.787-1.1 1.454-.962s1.1.787.963 1.454a21.58 21.58 0 0 1-.21.921h3.523a12.35 12.35 0 0 1 12.333 12.333v6.397c0 8.82-7.255 16.4-16.495 16.4-1.614 0-3.175-.234-4.65-.668-.16 2.046-1.137 3.967-2.827 5.325l7.478 5.79 4.398-3.405c.54-.417 1.314-.318 1.73.22s.32 1.314-.22 1.73l-5.153 3.99c-.444.344-1.065.344-1.5 0l-9.1-7.038c-1.338.442-2.517.385-2.4.385a10.26 10.26 0 0 0-10.263 10.263v7.285c0 .68-.552 1.233-1.233 1.233s-1.234-.552-1.234-1.233v-7.285c0-5.826 3.888-10.653 9.077-12.2a2.47 2.47 0 0 0-1.976-1.04c-6.054-.128-10.49-6.238-8.743-12.033a2.47 2.47 0 0 0-.88-2.708c-4.822-3.662-4.82-11.213 0-14.873.84-.638 1.185-1.7.88-2.71-1.748-5.798 2.69-11.905 8.743-12.033 1.053-.023 1.957-.68 2.304-1.674 1.992-5.717 9.173-8.05 14.145-4.596.865.6 1.983.6 2.848 0 4.973-3.454 12.153-1.12 14.145 4.596.347.994 1.25 1.652 2.304 1.674 6.054.128 10.49 6.237 8.743 12.032-.304 1.01.04 2.072.88 2.71 4.822 3.662 4.82 11.212 0 14.873zm-2.522 27.98v7.285c0 .68-.552 1.233-1.234 1.233s-1.233-.552-1.233-1.233v-7.285a10.26 10.26 0 0 0-10.263-10.263 7.57 7.57 0 0 1-6.514-3.658c-.354-.582-.17-1.34.412-1.695s1.34-.17 1.694.412c.944 1.55 2.592 2.475 4.408 2.475 7.036-.001 12.73 5.693 12.73 12.73z" class="F"/></g><path d="M142.758 413.433v6.085c0 .68-.552 1.233-1.233 1.233H96.52c-.68 0-1.233-.552-1.233-1.233v-6.085c0-6.356 5.2-11.398 11.557-11.46 2.115-.022 4.014-1.07 5.172-2.72l-.01-.01c1.278-1.818 1.15-3.455 1.153-4.7l.023-.057c-5.525-2.3-9.413-7.737-9.416-14.088v-.503c-2.212 0-3.85-1.754-3.85-3.784l.01-15.02c.002-2.298 1.865-4.16 4.163-4.16 1.87-4.66 6.387-7.702 11.39-7.7l16.58.013c.862.001 1.458.864 1.15 1.67l-1.055 2.784c-.255.674.118 1.42.81 1.62l.854.25c2.56.743 4.486 3.075 4.486 5.94l-.007 14.378a4.01 4.01 0 0 1-4.012 4.009v.503c-.005 6.365-3.906 11.818-9.447 14.1h0l.02.043c0 1.188-.14 2.862 1.15 4.7a6.44 6.44 0 0 0 5.194 2.728c6.356.062 11.557 5.104 11.557 11.46z" class="I"/><path d="M142.758 413.433v6.085c0 .68-.552 1.233-1.233 1.233H96.52c-.68 0-1.233-.552-1.233-1.233v-6.085c0-6.357 5.2-11.398 11.557-11.46 2.102-.022 4.006-1.057 5.174-2.723l6.088 6.766c.5.544 1.344.544 1.834 0l6.08-6.756c1.117 1.595 3.028 2.69 5.183 2.713 6.356.062 11.557 5.103 11.557 11.46z" class="P"/><g fill="#e8f8fc"><path d="M128.744 401.46c-.02.04-1.54 6.96-1.53 6.917a1.14 1.14 0 0 1-1.965.5l-3.904-4.422 4.673-5.193a6.41 6.41 0 0 0 2.726 2.199zm-16.727-2.2l4.57 5.08-3.792 4.494c-.606.718-1.772.43-1.974-.488l-1.522-6.878c1.1-.47 2.04-1.24 2.717-2.208z"/></g><path d="M138.303 361.51l-.007 14.378a4.01 4.01 0 0 1-4.012 4.009l.006-9.5a7.4 7.4 0 0 0-7.392-7.403l-15.72-.01a7.4 7.4 0 0 0-7.404 7.393l-.007 9.52c-2.212 0-3.85-1.754-3.85-3.784l.01-15.02c.002-2.298 1.865-4.16 4.163-4.16 1.87-4.662 6.387-7.702 11.39-7.7l16.58.013c.862.001 1.458.864 1.152 1.67l-1.056 2.784c-.255.673.118 1.42.81 1.62l.854.248c2.56.744 4.486 3.076 4.486 5.94z" class="G"/><path d="M126.898 362.994a7.4 7.4 0 0 1 7.392 7.403l-.006 10.002c-.005 6.365-3.906 11.818-9.447 14.1h0c-10.03 4.136-21.065-3.263-21.07-14.102l.007-10.022a7.4 7.4 0 0 1 7.404-7.393l15.72.01z" class="J"/><path d="M125.053 397.08c-3.797 1.59-7.97 1.713-12.062 0 .21-.867.174-1.43.174-2.53l.023-.057a15.29 15.29 0 0 0 11.668 0l.023.057c0 1.102-.035 1.664.174 2.53z" class="K"/><path d="M115.567 390.242c2.51 1.57.53 5.42-2.216 4.316-5.646-2.266-9.588-7.768-9.588-14.17v-10.003c0-1.554.48-2.996 1.3-4.187 1.026-1.492 3.336-.752 3.325 1.058v10.05c0 5.627 2.958 10.294 7.18 12.935z" class="L"/><path d="M133.21 350.915l-1.103 2.95-12.004-.01c-4.66-.003-8.898 2.635-10.967 6.764-.26.518-.73.906-1.296 1.026-1.878.4-3.287 2.07-3.288 4.07v1.364c-.497.992-.776 2.113-.777 3.298l-.004 5.782c-.002 2.497-3.855 2.662-3.853-.047l.01-15.02c.002-2.298 1.865-4.16 4.163-4.16 1.87-4.66 6.387-7.702 11.39-7.7l16.58.013c.862.001 1.458.864 1.15 1.67z" class="H"/><path d="M112.114 405.723l.683 3.1c-.606.718-1.773.43-1.975-.487l-1.522-6.877c1.1-.472 2.04-1.24 2.717-2.21l1.316 1.464c-1.13 1.41-1.61 3.235-1.22 5.01z" fill="#f1fafc"/><path d="M131.253 400.75a5.12 5.12 0 0 1-4.405-2.477c-.354-.582-1.113-.767-1.695-.413s-.766 1.113-.412 1.694a7.6 7.6 0 0 0 2.577 2.572l-1.282 5.8-3.078-3.55c.572-.657.41-1.407-.056-1.813-.514-.447-1.293-.394-1.74.12l-2.17 2.49-5.457-6.07a7.53 7.53 0 0 0 .829-2.887c10.56 3.094 21.125-4.796 21.153-15.78l.007-10.037a8.63 8.63 0 0 0-8.625-8.637l-15.722-.01a8.63 8.63 0 0 0-8.637 8.626l-.005 7.995c-.824-.427-1.386-1.274-1.386-2.26l.01-15.02c.001-1.614 1.315-2.926 2.93-2.926.52 0 .964-.32 1.147-.775 1.658-4.137 5.674-6.924 10.242-6.924l16.58.01-1.53 4.033c-.255.672.118 1.42.81 1.62l2.136.62c2.042.593 3.59 2.464 3.598 4.755l-.01 14.63c-.001.68.55 1.233 1.232 1.234s1.234-.554 1.234-1.232l.01-14.688c-.012-3.244-2.222-6.15-5.376-7.067l-.854-.248 1.688-4.453c.306-.806-.3-1.67-1.152-1.67L115.48 348a13.49 13.49 0 0 0-12.225 7.763c-2.578.4-4.56 2.636-4.56 5.326l-.01 15.022c-.002 2.395 1.675 4.354 3.862 4.878.225 6.354 4.034 11.74 9.38 14.294v.314c-.002 2.842-2.306 5.135-5.152 5.135-6.657-.12-12.734 5.426-12.74 12.718l-.005 7.284a1.23 1.23 0 0 0 1.232 1.233c.684 0 1.233-.553 1.234-1.232l.005-7.283c.004-5.666 4.59-10.254 10.26-10.254.428.008 1.04-.046 1.62-.17l1.715 7.8c.217 1 1.473 1.306 2.135.544l4.44-5.106 1.105 1.23-.005 7.387c-.001.68.55 1.233 1.232 1.234s1.233-.554 1.234-1.232l.005-7.4 1.082-1.243 4.457 5.14c.664.766 1.918.446 2.136-.54l1.726-7.808c.522.112 1.06.173 1.6.173 5.67.004 10.258 4.596 10.254 10.267l-.005 7.284c0 .68.55 1.233 1.232 1.234s1.234-.554 1.234-1.232l.005-7.284a12.72 12.72 0 0 0-12.718-12.735zM105 380.37l.007-9.994c.003-3.398 2.768-6.16 6.165-6.16l15.726.01a6.16 6.16 0 0 1 6.16 6.169l-.006 10.053a14.02 14.02 0 1 1-28.052-.078zm6.977 27.543l-1.274-5.802c.47-.283.912-.62 1.318-1.007l2.988 3.323-3.032 3.486z" class="F"/><g clip-path="url(#C)"><path d="M142.742 213.48v6.052c0 .682-.552 1.234-1.234 1.234H96.492c-.68 0-1.233-.552-1.233-1.234v-6.052a11.48 11.48 0 0 1 4.625-9.218v-39.7c0-8.472 6.868-15.34 15.34-15.34h7.708c8.472 0 15.34 6.868 15.34 15.34v39.81c2.72 2.1 4.47 5.396 4.47 9.1z" class="I"/><path d="M142.742 213.48v6.052c0 .682-.552 1.233-1.234 1.233H96.492c-.68 0-1.233-.55-1.233-1.233v-6.052a11.5 11.5 0 0 1 11.496-11.497c1.4 0 2.715-.456 3.772-1.23l.278 1.796 7.44 5.76c.445.344 1.065.344 1.5 0l7.44-5.76.277-1.796c1.058.774 2.362 1.23 3.773 1.23a11.5 11.5 0 0 1 11.496 11.497z" fill="#ffa4b8"/><path d="M127.196 202.55l-2.806 18.216H113.6l-2.805-18.216 7.44 5.76c.444.344 1.066.344 1.5 0l7.44-5.76z" class="P"/><path d="M134.263 180.395v-7.602a1.23 1.23 0 0 0-.811-1.159c-2.682-.97-4.947-2.84-6.403-5.336-.425-.73-1.436-.835-1.988-.197-5.08 5.87-12.086 9.752-20.237 10.743-.62.075-1.086.6-1.086 1.224v2.327c0 6.362 3.892 11.815 9.427 14.106l-.023.057v1.053c0 3.53-2.87 6.373-6.387 6.373a11.45 11.45 0 0 0-6.871 2.279v-39.7c0-8.472 6.868-15.34 15.34-15.34h7.708c8.472 0 15.34 6.868 15.34 15.34v39.808a11.44 11.44 0 0 0-7.025-2.397c-3.515 0-6.388-2.84-6.388-6.373v-1.053l-.023-.057c5.535-2.29 9.428-7.744 9.428-14.106z" class="N"/><path d="M133.452 171.634a1.23 1.23 0 0 1 .81 1.159v7.602c0 6.363-3.892 11.815-9.427 14.106-10.008 4.155-21.098-3.225-21.098-14.106v-2.327c0-.624.467-1.148 1.087-1.223 8.146-.99 15.153-4.87 20.237-10.744.552-.638 1.563-.53 1.988.197a12.19 12.19 0 0 0 6.403 5.336z" class="J"/><path d="M125.033 197.1a15.3 15.3 0 0 1-12.065 0c.21-.868.174-1.43.174-2.532l.023-.057c3.713 1.54 7.95 1.544 11.67 0l.023.057c0 1.103-.034 1.665.175 2.532z" class="K"/><path d="M128.708 150.358c1.88.765 1.257 3.554-.77 3.505l-8.09-.005c-8.472 0-15.34 6.868-15.34 15.34v6.844c0 1.124-.77 1.155-.77 2.027 0 2.464-.115 4.298.684 6.856a1.89 1.89 0 0 1 .087.558v15.3c0 .8-.5 1.503-1.254 1.743a11.5 11.5 0 0 0-3.371 1.736v-39.7c0-8.472 6.868-15.34 15.34-15.34h7.708a15.3 15.3 0 0 1 5.777 1.125z" class="O"/><path d="M115.607 190.148c2.572 1.6.54 5.55-2.272 4.423-5.71-2.29-9.597-7.83-9.597-14.176v-2.327a1.23 1.23 0 0 1 1.083-1.223c.585-.07 1.188-.16 1.808-.27a1.54 1.54 0 0 1 1.807 1.38c.488 5.64 3.345 9.812 7.17 12.193z" class="L"/><path d="M111.406 206.452c-7.23.186-11.677 5.63-11.677 11.5v2.815h-3.237c-.68 0-1.233-.552-1.233-1.233v-6.052a11.5 11.5 0 0 1 11.496-11.497c1.4 0 2.715-.456 3.772-1.23l.88 5.698z" fill="#ffb1bf"/><path d="M126.594 206.452c7.23.186 11.677 5.63 11.677 11.5v2.815h3.237c.68 0 1.234-.552 1.234-1.233v-6.052a11.5 11.5 0 0 0-11.496-11.497c-1.41 0-2.715-.456-3.773-1.23l-.88 5.698z" fill="#ff99af"/><path d="M116.694 220.766H113.6l-2.805-18.216 3.5 2.7 2.388 15.506z" fill="#bdeffc"/><path d="M143.975 213.48v7.286c0 .68-.552 1.233-1.233 1.233s-1.234-.552-1.234-1.233v-7.286a10.26 10.26 0 0 0-10.263-10.263 7.67 7.67 0 0 1-2.822-.534l-2.815 18.27c-.103.674-.733 1.135-1.406 1.032s-1.135-.734-1.03-1.407l2.975-19.312c-.542-.5-1.022-1.06-1.416-1.707-.354-.582-.17-1.34.412-1.695s1.34-.17 1.695.412c.934 1.533 2.584 2.474 4.408 2.474 7.036 0 12.73 5.694 12.73 12.73zm-20.372-8.15c-.417-.54-1.19-.637-1.73-.22L119 207.336l-7.052-5.46-.094-.61c1.418-1.277 2.337-3.043 2.495-5.044 10.53 3.1 21.062-4.802 21.146-15.698.001-.027.001-8.6.001-8.627a1.24 1.24 0 0 0-.702-1.112c-.27-.13-5.264-1.202-7.402-6.59-.352-.887-1.544-1.058-2.127-.293-4.513 5.916-10.922 9.867-18.106 11.29-.668.133-1.102.782-.97 1.45.117.587.632.994 1.21.994.31 0 10.692-1.535 18.6-10.71 1.642 2.81 4.156 4.82 7.04 5.865v7.603A14.05 14.05 0 0 1 119 194.424c-7.24 0-14.03-5.628-14.03-14.51 0-.682-.553-1.234-1.234-1.234s-1.233.552-1.233 1.234l.002.742c.1 6.448 3.92 12 9.402 14.632v.324a5.1 5.1 0 0 1-1.509 3.636c-1.73 1.726-3.966 1.505-3.645 1.505a12.68 12.68 0 0 0-5.638 1.313v-37.492c0-7.778 6.33-14.106 14.107-14.106h7.708c7.778 0 14.106 6.328 14.106 14.106v33.377c0 .68.552 1.233 1.234 1.233s1.233-.552 1.233-1.233v-33.377c0-9.138-7.435-16.573-16.573-16.573h-7.708c-9.14 0-16.573 7.435-16.573 16.573v39.092c-2.95 2.446-4.625 5.996-4.625 9.816v7.286c0 .68.552 1.233 1.233 1.233s1.233-.552 1.233-1.233v-7.286c0-2.74 1.068-5.32 3.006-7.257 3.426-3.426 7.78-3.006 7.257-3.006.982 0 1.935-.186 2.82-.538l2.815 18.274c.094.6.62 1.046 1.218 1.046.76 0 1.335-.676 1.22-1.42l-2.336-15.16 5.752 4.453c.445.345 1.066.343 1.5 0l3.628-2.81c.54-.417.637-1.192.22-1.73z" class="F"/></g><g clip-path="url(#D)"><path d="M292.742 213.42v6.112c0 .682-.552 1.234-1.234 1.234h-45.016c-.682 0-1.234-.552-1.234-1.234v-6.112c0-6.357 5.202-11.376 11.558-11.436a6.38 6.38 0 0 0 6.326-6.374v-1.053l.023-.057c.472.196.956.37 1.45.515-6.103-1.856-10.878-7.475-10.878-14.62v-.482c-2.198 0-3.854-1.738-3.854-3.784v-21.962c0-2.724 2.2-4.934 4.934-4.934h28.366c2.724 0 4.934 2.2 4.934 4.934v21.89c0 2.13-1.725 3.855-3.855 3.855v.482c0 6.363-3.892 11.815-9.427 14.106l.023.057v1.053a6.38 6.38 0 0 0 6.326 6.374c6.356.06 11.558 5.08 11.558 11.436z" class="N"/><path d="M292.76 213.4v6.113c0 .682-.552 1.233-1.233 1.233H246.51c-.68 0-1.233-.55-1.233-1.233V213.4c0-6.356 5.2-11.376 11.557-11.436 1.474-.014 2.83-.527 3.906-1.376 1.238 1.238 3.196 2.89 3.757 6.246 2.78 1.27 6.49 1.197 9.03.08.534-3.385 2.497-5.054 3.77-6.325a6.38 6.38 0 0 0 3.905 1.376c6.356.06 11.558 5.08 11.558 11.436z" fill="#fe4f60"/><path d="M284.263 180.395c0 6.362-3.893 11.815-9.428 14.106-9.984 4.145-21.097-3.204-21.097-14.106V170.4a7.4 7.4 0 0 1 7.4-7.4h15.725a7.4 7.4 0 0 1 7.4 7.4v10.005z" class="O"/><path d="M288.117 154.167v21.89c0 2.13-1.725 3.855-3.854 3.855V170.4a7.4 7.4 0 0 0-7.4-7.4h-15.726a7.4 7.4 0 0 0-7.4 7.4v9.523c-2.197 0-3.854-1.737-3.854-3.784v-21.962c0-2.724 2.2-4.934 4.934-4.934h28.366c2.724 0 4.934 2.2 4.934 4.934z" class="G"/><path d="M275.033 197.1c-3.8 1.6-7.973 1.713-12.066 0 .21-.868.175-1.43.175-2.532l.023-.057c3.712 1.54 7.95 1.544 11.67 0l.023.057c0 1.103-.035 1.665.175 2.532z" class="R"/><path d="M273.53 206.914c-.16.99-.118.312-.118 13.833h-8.784l-.13-13.912c2.794 1.275 6.505 1.2 9.03.08z" class="P"/><path d="M266.63 220.747h-2.004l-.13-13.912a9.92 9.92 0 0 0 2.092.677c.058.618.04-.183.04 13.235z" fill="#bdeffc"/><path d="M260.826 205.974c-6.347.042-11.54 5.05-11.54 11.396v3.377h-2.775c-.68 0-1.233-.552-1.233-1.233v-6.112c0-6.357 5.2-11.377 11.558-11.437a6.37 6.37 0 0 0 3.904-1.376c.64.64 1.256 1.215 1.815 1.903 1.085 1.335.293 3.468-1.73 3.482z" fill="#ff6d7a"/><path d="M277.193 205.993c6.348.042 11.54 5.05 11.54 11.396v3.378h2.775c.68 0 1.234-.553 1.234-1.234v-6.112c0-6.357-5.2-11.377-11.558-11.437a6.37 6.37 0 0 1-3.905-1.376c-.64.64-1.256 1.215-1.815 1.903-1.085 1.336-.293 3.468 1.73 3.482z" fill="#e84857"/><path d="M265.545 190.25c2.5 1.57.532 5.42-2.216 4.318-5.64-2.263-9.59-7.76-9.59-14.173V170.4c0-1.555.48-2.998 1.298-4.19 1.004-1.46 3.327-.815 3.327 1.105v10.006c0 5.63 2.96 10.297 7.182 12.938z" class="S"/><path d="M283.25 153.858c-3.473-.001-9.472 0-19.85 0-4.9 0-8.892 3.98-8.892 8.9v3.928a1.89 1.89 0 0 1-.157.759c-.394.905-.614 1.904-.614 2.954v5.785c0 2.475-3.724 2.617-3.85.146-.007-.15-.005-22.302-.005-22.153 0-2.725 2.21-4.934 4.934-4.934l28.584.005c2.98.13 2.835 4.62-.15 4.62z" class="H"/><path d="M285.496 180.394V170.4c0-4.76-3.873-8.633-8.633-8.633h-15.725c-4.76 0-8.634 3.873-8.634 8.633v7.996c-.824-.428-1.387-1.278-1.387-2.257v-21.962c0-2.04 1.66-3.7 3.7-3.7h28.366c2.04 0 3.7 1.66 3.7 3.7v21.962c0 .68.553 1.234 1.234 1.234s1.233-.553 1.233-1.234v-21.962c0-3.4-2.766-6.167-6.167-6.167h-28.366c-3.4 0-6.167 2.766-6.167 6.167v21.962c0 2.36 1.65 4.343 3.867 4.875.23 6.3 4.008 11.708 9.39 14.282v.325c0 2.843-2.304 5.14-5.153 5.14-7.037 0-12.73 5.693-12.73 12.73v7.286c0 .68.552 1.233 1.233 1.233s1.234-.552 1.234-1.233v-7.286a10.26 10.26 0 0 1 10.263-10.263c4.037 0 7.287-3.106 7.594-6.997 10.57 3.112 21.147-4.867 21.147-15.827zm-30.525 0V170.4c0-3.4 2.766-6.167 6.167-6.167h15.725c3.4 0 6.166 2.766 6.166 6.167v10.004c0 7.736-6.293 14.03-14.03 14.03s-14.03-6.293-14.03-14.03zm39.004 33.087v7.286c0 .68-.552 1.233-1.233 1.233s-1.234-.552-1.234-1.233v-7.286a10.26 10.26 0 0 0-10.263-10.263 7.61 7.61 0 0 1-3.816-1.015l-.395.394c-1.553 1.554-2.41 3.62-2.41 5.817v12.353c0 .68-.552 1.233-1.233 1.233s-1.234-.552-1.234-1.233V208.6a11.76 11.76 0 0 1-6.316.002v12.175c0 .68-.552 1.233-1.233 1.233s-1.234-.552-1.234-1.233v-12.353a8.28 8.28 0 0 0-.825-3.593c-.298-.613-.042-1.35.57-1.648s1.35-.042 1.648.57c.332.683.587 1.404.766 2.143a9.29 9.29 0 0 0 6.924.001c.53-2.195 1.587-3.8 3.058-5.26-.288-.33-.553-.684-.786-1.067-.354-.582-.17-1.34.412-1.695s1.34-.17 1.695.412c.91 1.493 2.537 2.475 4.408 2.475 7.036-.001 12.73 5.693 12.73 12.73z" class="F"/></g><g clip-path="url(#E)"><g class="I"><path d="M594.826 404.036l-3.654 3.643a11.44 11.44 0 0 1 1.57 5.801v6.053c0 .68-.552 1.233-1.234 1.233h-45.016c-.682 0-1.234-.552-1.234-1.233v-6.053a11.44 11.44 0 0 1 1.57-5.801c-.042-.025.25.262-3.654-3.643a4.04 4.04 0 0 1-.314-5.36c1.547-1.98 1.098-4.265-.295-5.578-1.528-1.44-1.697-3.812-.4-5.456l1.776-2.232a4.04 4.04 0 0 0 .712-3.658l-1.147-3.9a4.04 4.04 0 0 1 2.344-4.882l1.515-.622a4.04 4.04 0 0 0 2.508-3.738v-3.97a15.42 15.42 0 0 1 15.417-15.417h7.4a15.42 15.42 0 0 1 15.417 15.417v3.97a4.04 4.04 0 0 0 2.508 3.738l1.515.622a4.04 4.04 0 0 1 2.344 4.882l-1.147 3.9a4.04 4.04 0 0 0 .712 3.658l1.776 2.232a4.04 4.04 0 0 1-.39 5.456 4.04 4.04 0 0 0-.399 5.444c1.474 1.887 1.16 4.123-.2 5.494z"/><path d="M543.174 404.036l3.654 3.643a11.44 11.44 0 0 0-1.57 5.801v6.053c0 .68.552 1.233 1.234 1.233h45.016c.682 0 1.234-.552 1.234-1.233v-6.053a11.44 11.44 0 0 0-1.57-5.801c.042-.025-.25.262 3.654-3.643a4.04 4.04 0 0 0 .314-5.36c-1.547-1.98-1.098-4.265.295-5.578 1.528-1.44 1.697-3.812.4-5.456l-1.776-2.232a4.04 4.04 0 0 1-.712-3.658l1.147-3.9a4.04 4.04 0 0 0-2.344-4.882l-1.515-.622a4.04 4.04 0 0 1-2.508-3.738v-3.97a15.42 15.42 0 0 0-15.417-15.417h-7.4a15.42 15.42 0 0 0-15.417 15.417v3.97a4.04 4.04 0 0 1-2.508 3.738l-1.515.622a4.04 4.04 0 0 0-2.344 4.882l1.147 3.9a4.04 4.04 0 0 1-.712 3.658l-1.776 2.232a4.04 4.04 0 0 0 .39 5.456 4.04 4.04 0 0 1 .399 5.444c-1.474 1.887-1.16 4.123.2 5.494z"/></g><path d="M554.83 376.804a1.23 1.23 0 0 0-1.093 1.225v2.366c0 6.36 3.892 11.815 9.427 14.106l-.023.057v1.053a6.38 6.38 0 0 1-6.313 6.373c-4.328 0-8.004 2.284-10 5.695-.043-.026-3.618-3.607-3.654-3.643a4.04 4.04 0 0 1-.314-5.36c1.547-1.98 1.098-4.265-.295-5.578-1.528-1.44-1.697-3.812-.4-5.456l1.776-2.232a4.04 4.04 0 0 0 .712-3.658l-1.147-3.9a4.04 4.04 0 0 1 2.344-4.882l1.515-.622a4.04 4.04 0 0 0 2.508-3.738v-3.97a15.42 15.42 0 0 1 15.417-15.417h7.4a15.42 15.42 0 0 1 15.417 15.417v3.97a4.04 4.04 0 0 0 2.508 3.738l1.515.622a4.04 4.04 0 0 1 2.344 4.882l-1.147 3.9a4.04 4.04 0 0 0 .712 3.658l1.776 2.232a4.04 4.04 0 0 1-.39 5.456c-1.424 1.342-1.817 3.63-.295 5.578a4.04 4.04 0 0 1-.314 5.36l-3.654 3.643a11.49 11.49 0 0 0-10.001-5.695 6.38 6.38 0 0 1-6.313-6.373v-1.053l-.023-.058c5.535-2.29 9.427-7.743 9.427-14.105v-7.602a1.23 1.23 0 0 0-.81-1.159c-2.682-.97-4.947-2.84-6.403-5.336-.426-.73-1.447-.815-2-.175-5.16 5.982-12.325 9.78-20.22 10.68z" fill="#fe4f60"/><path d="M583.452 371.634a1.23 1.23 0 0 1 .81 1.159v7.602c0 6.362-3.892 11.814-9.427 14.105-10.01 4.155-21.097-3.227-21.097-14.105v-2.366a1.23 1.23 0 0 1 1.093-1.225c7.88-.9 15.05-4.69 20.22-10.68.552-.64 1.573-.554 2 .175a12.19 12.19 0 0 0 6.403 5.336z" class="J"/><path d="M578.116 350.213c1.97.738 1.405 3.658-.7 3.646l-7.492-.001a15.42 15.42 0 0 0-15.417 15.417v3.97a4.04 4.04 0 0 1-2.508 3.738l-1.515.622a4.04 4.04 0 0 0-2.344 4.882l1.147 3.9a4.04 4.04 0 0 1-.712 3.658l-1.776 2.232c-1.307 1.644-1.138 4.015.4 5.456a4.04 4.04 0 0 1 .399 5.444c-1.088 1.392-1.207 2.91-.653 4.213.062.148-.126.284-.245.168l-3.517-3.512c-1.344-1.343-1.71-3.576-.2-5.494a4.04 4.04 0 0 0-.399-5.444c-1.528-1.44-1.697-3.812-.4-5.456l1.776-2.232a4.04 4.04 0 0 0 .712-3.658l-1.147-3.9a4.04 4.04 0 0 1 2.344-4.882l1.515-.622a4.04 4.04 0 0 0 2.508-3.738v-3.97a15.42 15.42 0 0 1 15.417-15.417h7.4a15.4 15.4 0 0 1 5.416.98z" fill="#ff6d7a"/><path d="M565.527 390.26c2.496 1.58.545 5.407-2.198 4.308-5.634-2.256-9.59-7.76-9.59-14.173v-2.367a1.23 1.23 0 0 1 1.093-1.224c.572-.066 1.2-.152 1.844-.266a1.5 1.5 0 0 1 1.755 1.35c.465 5.71 3.275 9.952 7.097 12.372z" class="L"/><path d="M575.033 397.1c-3.8 1.59-7.973 1.713-12.066 0 .2-.868.175-1.43.175-2.532l.023-.057c3.712 1.54 7.95 1.544 11.67 0l.023.057c0 1.103-.035 1.665.175 2.532z" class="K"/><path d="M595.698 404.91l-3.002 3.002a12.68 12.68 0 0 1 1.279 5.57v7.285c0 .68-.552 1.234-1.234 1.234s-1.233-.553-1.233-1.234v-7.285c0-5.398-4.15-9.8-9.418-10.226l-5.12 17.85c-.156.542-.65.894-1.185.894-.82 0-1.412-.786-1.186-1.574l4.99-17.4a7.56 7.56 0 0 1-4.857-3.476c-.354-.582-.17-1.34.412-1.695s1.34-.17 1.695.412c.897 1.473 2.43 2.38 4.14 2.466.153-.026.312-.023.472.013a12.66 12.66 0 0 1 9.913 5l2.59-2.592a2.81 2.81 0 0 0 .219-3.725c-1.956-2.475-1.46-5.47.416-7.238 1.053-.993 1.173-2.658.27-3.79l-1.775-2.23a5.28 5.28 0 0 1-.931-4.776l1.148-3.9a2.8 2.8 0 0 0-1.628-3.393l-1.515-.62c-1.99-.816-3.275-2.73-3.275-4.88v-3.97c0-7.822-6.362-14.184-14.183-14.184h-7.4c-7.82 0-14.183 6.363-14.183 14.184v3.97c0 2.15-1.286 4.064-3.275 4.88l-1.515.62a2.8 2.8 0 0 0-1.628 3.393l1.148 3.9a5.28 5.28 0 0 1-.931 4.776l-1.776 2.23c-.9 1.133-.782 2.798.27 3.79 1.88 1.77 2.37 4.765.417 7.24a2.81 2.81 0 0 0 .218 3.724l2.592 2.592c2.386-3.112 6.044-5.005 10.116-5.005 2.847 0 5.154-2.293 5.154-5.14v-.324c-5.098-2.427-8.507-7.236-9.25-12.622-.093-.675.38-1.298 1.053-1.39s1.298.38 1.39 1.054c.95 6.895 6.924 12.095 13.897 12.095a14.05 14.05 0 0 0 14.029-14.029v-7.603a13.42 13.42 0 0 1-7.042-5.865c-5.947 6.9-14.44 10.93-23.434 11.29-.68.028-1.254-.5-1.28-1.183s.502-1.254 1.183-1.28c8.88-.355 17.25-4.56 22.8-11.85.58-.762 1.774-.597 2.127.293a10.98 10.98 0 0 0 7.207 6.514 1.24 1.24 0 0 1 .892 1.093c.008.1.006 8.67.004 8.72-.084 10.87-10.58 18.798-21.146 15.695-.16 2.043-1.133 3.967-2.828 5.328l7.48 5.8 4.398-3.405c.54-.417 1.313-.32 1.73.22s.32 1.313-.22 1.73l-4.675 3.62v8.8c0 .68-.552 1.233-1.233 1.233s-1.234-.552-1.234-1.233v-8.8l-8.612-6.668c-1.338.44-2.517.385-2.4.385a10.26 10.26 0 0 0-10.264 10.263v7.285c0 .68-.552 1.234-1.233 1.234s-1.233-.553-1.233-1.234v-7.285c0-1.963.443-3.857 1.28-5.57l-3.002-3.002c-1.757-1.757-2.22-4.706-.305-7.13a2.79 2.79 0 0 0-.278-3.782 5.31 5.31 0 0 1-.509-7.121l1.775-2.232a2.81 2.81 0 0 0 .495-2.543l-1.147-3.89a5.26 5.26 0 0 1 3.058-6.373l1.515-.62c1.06-.434 1.743-1.453 1.743-2.597v-3.97c.001-9.18 7.47-16.65 16.65-16.65h7.4c9.18 0 16.65 7.47 16.65 16.65v3.97c0 1.144.684 2.163 1.743 2.597l1.515.62a5.26 5.26 0 0 1 3.059 6.373l-1.148 3.9a2.81 2.81 0 0 0 .496 2.542l1.775 2.232a5.31 5.31 0 0 1-.509 7.121 2.79 2.79 0 0 0-.278 3.782c1.884 2.385 1.485 5.34-.305 7.13zm-35.994 2.418c-.186-.655-.867-1.037-1.522-.852s-1.037.867-.852 1.522l3.7 13.105c.185.655.866 1.036 1.522.85s1.037-.866.852-1.522l-3.7-13.104z" class="F"/></g><g clip-path="url(#F)"><path d="M442.742 413.48v6.052c0 .682-.552 1.234-1.234 1.234h-45.016c-.682 0-1.234-.552-1.234-1.234v-6.052c0-4.893 3.06-9.08 7.377-10.736l1.18-3.044a2.47 2.47 0 0 1 3.747-1.105l2.97 2.155c1.582-1.16 2.61-3.028 2.61-5.14v-1.053l.023-.057c-5.535-2.29-9.428-7.743-9.428-14.106v-.482c-2.197 0-3.854-1.737-3.854-3.784v-9.18c1.24-9.732 8.943-15.896 18.48-17.61 1.155-.21 1.127.914 4.8 3.285 1.873 1.21 4.344 2.21 6.735 2.992 4.903 1.605 8.22 6.175 8.22 11.332v9.11c0 2.13-1.725 3.855-3.854 3.855v.482c0 6.363-3.893 11.815-9.428 14.106l.023.057v1.053c0 2.112 1.027 3.98 2.61 5.14l2.97-2.155c1.31-.95 3.163-.402 3.747 1.107l1.18 3.042c4.313 1.655 7.377 5.84 7.377 10.736z" class="I"/><path d="M442.742 413.48v6.052c0 .68-.553 1.234-1.234 1.234h-45.016c-.68 0-1.234-.553-1.234-1.234v-6.052c0-4.893 3.06-9.08 7.377-10.736l1.18-3.044a2.47 2.47 0 0 1 3.747-1.105l9.266 6.72c1.295.94 3.05.94 4.344 0l9.266-6.72c1.31-.95 3.163-.402 3.747 1.107l1.18 3.042c4.313 1.655 7.377 5.84 7.377 10.736z" fill="#ffaa64"/><path d="M438.117 366.95v9.11c0 2.13-1.725 3.854-3.854 3.854V370.4a7.4 7.4 0 0 0-7.4-7.4h-15.725c-4.087 0-7.4 3.313-7.4 7.4v9.522c-2.197 0-3.854-1.736-3.854-3.783v-9.18c1.24-9.73 8.94-15.896 18.478-17.6a1.23 1.23 0 0 1 1.073.325c3.187 3.083 6.26 4.576 10.464 5.954 4.903 1.604 8.22 6.174 8.22 11.33z" fill="#ffe773"/><path d="M434.262 380.395c0 6.362-3.892 11.815-9.427 14.106-10.008 4.155-21.098-3.225-21.098-14.106V370.4a7.4 7.4 0 0 1 7.399-7.4h15.726a7.4 7.4 0 0 1 7.4 7.4v10.005z" class="J"/><path d="M409.5 400.002c-.965.558-1.024 1.146-2.24 4.284-4.313 1.656-7.377 5.84-7.377 10.736v5.745h-3.39c-.68 0-1.234-.552-1.234-1.234v-6.052c0-4.893 3.06-9.08 7.377-10.736l1.18-3.044c.584-1.508 2.438-2.055 3.747-1.105l1.938 1.406z" fill="#ffbd7b"/><path d="M428.5 400.002c.965.558 1.024 1.146 2.24 4.284 4.313 1.656 7.377 5.84 7.377 10.736v5.745h3.39c.68 0 1.234-.552 1.234-1.234v-6.052c0-4.893-3.06-9.08-7.377-10.736l-1.18-3.044c-.584-1.508-2.438-2.055-3.747-1.105l-1.938 1.406z" fill="#faa157"/><path d="M415.544 390.25c2.5 1.57.53 5.42-2.216 4.317-5.648-2.267-9.59-7.77-9.59-14.173V370.4a7.37 7.37 0 0 1 1.299-4.189c1.026-1.492 3.338-.752 3.326 1.06v10.052c0 5.628 2.96 10.297 7.182 12.94z" class="L"/><path d="M425.033 397.1c-3.8 1.6-7.973 1.713-12.066 0 .2-.868.175-1.43.175-2.532l.023-.057c3.712 1.54 7.95 1.544 11.67 0l.023.057c0 1.103-.034 1.665.175 2.532z" class="K"/><path d="M418.606 353.577c-5.75 2.03-10.672 5.97-12.938 11.827a7.38 7.38 0 0 0-1.93 4.986v5.784c0 2.475-3.725 2.617-3.85.146-.007-.15-.005.425-.005-9.37 1.246-9.774 8.995-15.907 18.48-17.6.38-.068.768.033 1.1.353 1.254 1.21.787 3.306-.856 3.885z" fill="#ffec8f"/><path d="M439.35 376.13v-9.18a13.13 13.13 0 0 0-9.068-12.504c-4.238-1.388-7.264-2.888-10.403-6.077-.277-.282-.673-.413-1.064-.354-9.814 1.485-18.76 7.87-20.155 18.78-.015.12-.01-.468-.01 9.336 0 2.36 1.65 4.342 3.866 4.875.23 6.3 4.01 11.708 9.392 14.282v.325c0 1.358-.517 2.618-1.44 3.568l-2.18-1.58a3.7 3.7 0 0 0-5.623 1.658l-.987 2.55c-4.558 1.98-7.652 6.507-7.652 11.676v7.286c0 .68.552 1.233 1.233 1.233s1.234-.552 1.234-1.233v-7.286a10.33 10.33 0 0 1 6.264-9.454l4.514 1.1c.55 0 1.053-.37 1.195-.93.168-.66-.23-1.33-.89-1.5l-3.28-.835.67-1.726c.292-.755 1.22-1.03 1.874-.553l9.266 6.72a4.92 4.92 0 0 0 5.792 0l9.265-6.72c.655-.475 1.582-.202 1.874.553l.67 1.726-3.278.835c-.66.168-1.06.84-.89 1.5s.84 1.06 1.5.89l4.775-1.203c.635-.246.95-.96.705-1.596l-1.18-3.043a3.7 3.7 0 0 0-5.623-1.659l-2.18 1.58c-.215-.222-.4-.462-.583-.72a1.23 1.23 0 1 0-2.051 1.369 7.58 7.58 0 0 0 .623.811l-5.075 3.68a2.46 2.46 0 0 1-2.896 0l-5.08-3.684a7.64 7.64 0 0 0 1.874-4.413c10.637 3.132 21.15-4.972 21.15-15.733V370.4c0-4.76-3.873-8.633-8.633-8.633h-15.726c-4.76 0-8.633 3.873-8.633 8.633v7.996c-.824-.428-1.387-1.278-1.387-2.257v-9.1c1.203-9.127 8.43-14.846 17.463-16.476 3.303 3.192 6.5 4.784 10.935 6.236a10.67 10.67 0 0 1 7.368 10.16v9.18c0 .68.553 1.234 1.234 1.234s1.233-.553 1.233-1.234zm-34.38-5.74c0-3.4 2.766-6.166 6.166-6.166h15.726c3.4 0 6.166 2.766 6.166 6.166v10.004A14.05 14.05 0 0 1 419 394.424a14.05 14.05 0 0 1-14.029-14.03V370.4zm39.004 43.09v7.286c0 .68-.552 1.233-1.233 1.233s-1.234-.552-1.234-1.233v-7.286a10.24 10.24 0 0 0-2.598-6.824c-.453-.51-.408-1.288.1-1.74s1.288-.41 1.74.1a12.71 12.71 0 0 1 3.223 8.465zm-28.402-1.155c-.92 2.88-2.584 5.598-4.99 7.807-.236.218-.536.325-.834.325-1.115 0-1.664-1.38-.835-2.14a15.55 15.55 0 0 0 4.307-6.74c.207-.65.9-1.008 1.55-.8s1.007.9.8 1.55zm13.51 5.99c.502.46.535 1.24.074 1.743s-1.24.534-1.743.073c-2.252-2.07-4.006-4.73-4.988-7.807-.206-.65.152-1.343.8-1.55s1.343.152 1.55.8a15.55 15.55 0 0 0 4.306 6.741z" class="F"/></g><g clip-path="url(#G)"><path d="M440.742 213.48v6.052c0 .682-.552 1.234-1.234 1.234h-45.016c-.682 0-1.234-.552-1.234-1.234v-6.052c0-4.655 2.768-8.664 6.747-10.473-1.624-1.292-4.098-3.028-5.9-6.763a16.3 16.3 0 0 1 1.117-16.121c1.735-2.606 2.66-5.664 2.66-8.794v-6.68a15.42 15.42 0 0 1 15.417-15.417h7.4a15.42 15.42 0 0 1 15.417 15.417c0 7.074-.173 8.46.68 11.273 1.203 3.977 2.792 4.47 4.017 8.517a16.31 16.31 0 0 1-5.453 17.481l-1.366 1.087c3.98 1.81 6.747 5.818 6.747 10.473z" class="I"/><path d="M440.742 213.48v6.052c0 .68-.552 1.234-1.234 1.234h-45.016c-.68 0-1.234-.553-1.234-1.234v-6.052a11.5 11.5 0 0 1 11.497-11.497 6.39 6.39 0 0 0 2.648-.571l.04.083 8.803 6.815c.445.344 1.066.344 1.5 0l8.803-6.815.04-.083c.806.366 1.704.57 2.65.57a11.5 11.5 0 0 1 11.496 11.497z" fill="#ffaa64"/><path d="M431.095 171.78c.655.038 1.168.576 1.168 1.232v7.382c0 6.362-3.893 11.815-9.428 14.106-10.008 4.155-21.097-3.225-21.097-14.106v-7.275c0-.723.62-1.294 1.34-1.23 7.398.67 14.683-1.197 20.8-5.32.696-.468 1.654-.12 1.874.69.76 2.805 2.836 4.378 5.344 4.52z" class="J"/><path d="M435.362 201.92l-1.366 1.087c-1.448-.657-3.056-1.023-4.75-1.023a6.38 6.38 0 0 1-6.387-6.374v-1.053l-.023-.057c5.534-2.29 9.427-7.743 9.427-14.106v-7.382c0-.656-.513-1.194-1.167-1.232-2.493-.142-4.58-1.697-5.345-4.52a1.23 1.23 0 0 0-1.873-.688c-6.114 4.118-13.398 5.99-20.8 5.318-.72-.065-1.34.506-1.34 1.23v7.275c0 6.363 3.893 11.816 9.427 14.106l-.023.057v1.053a6.38 6.38 0 0 1-6.387 6.374 11.48 11.48 0 0 0-4.75 1.023l-1.366-1.087a16.31 16.31 0 0 1-3.416-21.797c1.736-2.606 2.66-5.664 2.66-8.794v-6.68a15.42 15.42 0 0 1 15.416-15.417h7.4a15.42 15.42 0 0 1 15.417 15.417v6.68c0 3.126.925 6.188 2.66 8.794 4.708 7.07 3.19 16.538-3.416 21.797z" class="G"/><path d="M423.033 197.1a15.3 15.3 0 0 1-12.065 0c.21-.868.174-1.43.174-2.532l.023-.057c3.713 1.54 7.95 1.544 11.67 0l.023.057c-.001 1.103-.035 1.665.174 2.532z" class="K"/><path d="M427.665 150.892c1.574.8.9 3.202-.868 3.036l-1.472-.07h-7.4a15.42 15.42 0 0 0-15.417 15.417v1.876c0 1.107-.77 1.072-.77 1.97l-.087 7.98c-1.21 3.558-2.662 4.073-3.84 7.966a16.3 16.3 0 0 0-.609 6.424c.18 1.73-2.227 2.558-3.096.756-2.49-5.158-2.1-11.292 1.117-16.12 1.735-2.606 2.66-5.664 2.66-8.794v-6.68a15.42 15.42 0 0 1 15.417-15.417h7.4c2.506 0 4.873.598 6.965 1.66z" class="H"/><path d="M414.074 190.62c2.303 1.542.548 5.108-2.067 4.2-5.748-2.017-10.27-7.382-10.27-14.414v-7.275c0-.723.62-1.294 1.34-1.23.6.054 1.24.096 1.94.117a2.35 2.35 0 0 1 2.271 2.353v3.567c0 5.37 2.737 9.98 6.786 12.69z" class="L"/><path d="M409.985 203.464c.73.567.345 1.754-.58 1.758-6.526.024-11.52 5.265-11.52 11.496v4.05h-3.392c-.68 0-1.233-.553-1.233-1.234v-6.052a11.5 11.5 0 0 1 11.496-11.497 6.39 6.39 0 0 0 2.648-.571l.04.083 2.543 1.968z" fill="#ffbd7b"/><path d="M424.016 203.464c-.732.567-.345 1.754.58 1.758 6.526.024 11.52 5.265 11.52 11.496v4.05h3.39c.682 0 1.234-.553 1.234-1.234v-6.052a11.5 11.5 0 0 0-11.496-11.497c-.945 0-1.843-.205-2.65-.57l-.04.083-2.542 1.968z" fill="#faa157"/><path d="M441.975 213.48v7.286c0 .68-.552 1.233-1.233 1.233s-1.234-.552-1.234-1.233v-7.286a10.26 10.26 0 0 0-10.263-10.263 7.57 7.57 0 0 1-6.515-3.658c-.354-.582-.17-1.34.412-1.695s1.34-.17 1.695.412c.944 1.55 2.592 2.474 4.408 2.474 7.036 0 12.73 5.694 12.73 12.73zm-20.576-9.55l-4.4 3.405-7.478-5.8c1.614-1.296 2.658-3.183 2.827-5.325a16.43 16.43 0 0 0 4.651.669c9.096 0 16.496-7.4 16.496-16.496l-.004-8.73c-.042-.667-.598-1.155-1.23-1.155-.21 0-1.73.3-3.22-.594-2.32-1.396-2.33-4.455-2.33-4.486.006-1.002-1.127-1.593-1.946-1.014a39.75 39.75 0 0 1-17.488 6.939c-.674.095-1.145.718-1.05 1.392.086.617.614 1.063 1.22 1.063.194 0 4.193-.5 8.74-2.14a42.28 42.28 0 0 0 8.366-4.136c.9 3.41 3.46 5.308 6.476 5.48v7.383A14.05 14.05 0 0 1 417 194.423a14.05 14.05 0 0 1-14.029-14.029v-8.652c0-.68-.552-1.234-1.233-1.234s-1.233.553-1.233 1.234v8.652c0 6.56 3.847 12.235 9.404 14.892v.325c0 2.843-2.304 5.14-5.154 5.14a12.72 12.72 0 0 0-4.551.839l-.797-.634c-6.248-4.973-7.42-13.753-3.157-20.15a17.04 17.04 0 0 0 2.867-9.476v-6.68c0-7.82 6.363-14.184 14.183-14.184h7.4c7.82 0 14.184 6.362 14.184 14.183v6.68c0 3.393.987 6.663 2.854 9.455 3.414 5.108 3.407 11.812-.12 16.93-.386.56-.245 1.33.316 1.716s1.33.245 1.715-.316a17.53 17.53 0 0 0 .14-19.701c-1.595-2.386-2.438-5.182-2.438-8.085v-6.68c0-9.18-7.47-16.65-16.65-16.65h-7.4c-9.18 0-16.65 7.47-16.65 16.65v6.68c0 2.895-.848 5.7-2.453 8.108-4.973 7.465-3.564 17.618 3.596 23.383-3.517 2.307-5.768 6.225-5.768 10.66v7.286c0 .68.553 1.233 1.234 1.233s1.233-.552 1.233-1.233v-7.286a10.26 10.26 0 0 1 10.263-10.263c.818 0 1.625-.13 2.4-.385l9.1 7.038c.445.344 1.066.344 1.5 0l5.154-4c.538-.417.637-1.19.22-1.73s-1.192-.637-1.73-.22z" class="F"/></g><g clip-path="url(#H)"><path d="M295.75 384.52c-1.26.957-1.76 2.582-1.315 4.047 1.51 5.01-2.357 10.333-7.588 10.444a3.72 3.72 0 0 0-3.442 2.501 8.18 8.18 0 0 1-.253.633c5.446.908 9.59 5.646 9.59 11.337v6.052c0 .682-.552 1.234-1.234 1.234h-45.014c-.68 0-1.233-.552-1.233-1.234v-6.052a11.5 11.5 0 0 1 9.588-11.337c-.092-.206-.177-.416-.252-.633-.514-1.474-1.883-2.468-3.443-2.5-5.23-.11-9.098-5.435-7.588-10.444.45-1.494-.072-3.103-1.315-4.047-4.165-3.163-4.165-9.746 0-12.91a3.72 3.72 0 0 0 1.315-4.047c-1.5-5.008 2.358-10.333 7.588-10.444 1.56-.032 2.93-1.027 3.443-2.5 1.722-4.94 7.98-6.973 12.277-4a3.72 3.72 0 0 0 4.255 0c4.296-2.985 10.555-.95 12.277 4a3.72 3.72 0 0 0 3.442 2.5c5.23.11 9.1 5.436 7.588 10.444-.45 1.494.072 3.104 1.315 4.047 4.165 3.163 4.165 9.746 0 12.91z" class="N"/><path d="M284.262 369.085v4.082a45.18 45.18 0 0 0-30.524 0v-4.082c0-2.23 1.493-4.2 3.646-4.762a45.14 45.14 0 0 1 23.232 0c2.154.572 3.646 2.533 3.646 4.762z" fill="#befa91"/><path d="M284.262 373.167v7.23c0 6.362-3.893 11.814-9.427 14.105-10.007 4.154-21.097-3.225-21.097-14.105v-7.23a45.18 45.18 0 0 1 30.524 0z" class="O"/><path d="M284.262 380.396v-11.31c0-2.23-1.492-4.2-3.646-4.762a45.14 45.14 0 0 0-23.232 0c-2.153.572-3.646 2.533-3.646 4.762v11.31c0 6.362 3.893 11.814 9.427 14.105l-.023.06v1.053a6.37 6.37 0 0 1-3.838 5.845c-1.752.762-2.546.363-4.456.686-.092-.206-.177-.416-.252-.633-.514-1.474-1.883-2.468-3.443-2.5-5.23-.11-9.098-5.435-7.588-10.444.45-1.494-.072-3.103-1.315-4.047-4.165-3.163-4.165-9.746 0-12.91a3.72 3.72 0 0 0 1.315-4.047c-1.5-5.008 2.358-10.333 7.588-10.444 1.56-.032 2.93-1.027 3.443-2.5 1.722-4.94 7.98-6.973 12.277-4a3.72 3.72 0 0 0 4.255 0c4.296-2.985 10.555-.95 12.277 4a3.72 3.72 0 0 0 3.442 2.5c5.23.11 9.1 5.436 7.588 10.444-.45 1.494.072 3.104 1.315 4.047 4.165 3.163 4.165 9.746 0 12.91-1.26.957-1.76 2.582-1.315 4.047 1.51 5.01-2.357 10.333-7.588 10.444a3.72 3.72 0 0 0-3.442 2.501 8.18 8.18 0 0 1-.253.633c-1.907-.322-2.705.075-4.455-.686-2.26-.98-3.84-3.226-3.84-5.845v-1.053l-.023-.06c5.534-2.29 9.427-7.743 9.427-14.105z" class="G"/><path d="M275.032 397.09c-3.798 1.6-7.97 1.713-12.064 0 .21-.867.174-1.43.174-2.53l.023-.057c3.713 1.54 7.95 1.544 11.67 0l.023.057c0 1.102-.035 1.664.174 2.53z" class="R"/><path d="M275.3 349.243c3.464-.137 4.913 4.328 2.05 6.282-1.464.998-3.112.87-4.31.037-4.296-2.983-10.555-.95-12.277 4a3.72 3.72 0 0 1-3.442 2.5c-5.23.11-9.1 5.436-7.588 10.444.45 1.494-.073 3.104-1.315 4.047-4.166 3.163-4.166 9.746 0 12.91 1.166.885 1.79 2.424 1.298 4.103-.82 2.788-4.68 3.09-5.822.416-.71-1.66-.886-3.553-.328-5.405.45-1.494-.072-3.103-1.315-4.047-4.165-3.163-4.165-9.746 0-12.91 1.243-.944 1.766-2.553 1.315-4.047-1.5-5.008 2.358-10.333 7.588-10.444 1.56-.032 2.93-1.027 3.443-2.5 1.722-4.94 7.98-6.973 12.277-4a3.72 3.72 0 0 0 4.255 0c1.274-.886 2.72-1.33 4.17-1.386z" class="H"/><path d="M265.545 390.25c2.51 1.57.53 5.42-2.215 4.317-5.64-2.263-9.592-7.76-9.592-14.173v-7.228a44.66 44.66 0 0 1 4.625-1.384v5.53c0 5.63 2.96 10.298 7.182 12.94z" class="S"/><path d="M258.363 364.075v7.708c-1.8.434-3.354.928-4.625 1.384v-4.082c0-2.226 1.5-4.185 3.64-4.76 0-.01.978-.25.986-.25z" fill="#d0ffad"/><path d="M296.496 370.628a2.47 2.47 0 0 1-.88-2.708c1.748-5.797-2.69-11.905-8.742-12.033-1.054-.023-1.958-.68-2.305-1.674-1.992-5.717-9.174-8.05-14.145-4.596-.865.6-1.983.6-2.848 0-4.973-3.454-12.153-1.12-14.145 4.596-.347.995-1.25 1.652-2.304 1.674-6.053.128-10.49 6.238-8.743 12.033a2.47 2.47 0 0 1-.88 2.708c-4.822 3.662-4.82 11.213 0 14.873.84.637 1.185 1.7.88 2.71-1.748 5.796 2.69 11.904 8.743 12.032.808.018 1.528.4 1.976 1.04-5.184 1.545-9.077 6.368-9.077 12.2v7.285c0 .68.553 1.233 1.234 1.233s1.233-.552 1.233-1.233v-7.285a10.26 10.26 0 0 1 10.263-10.263 7.69 7.69 0 0 0 1.928-.245c3.623 6.476 12.252 8.048 17.935 3.264.52-.44.587-1.217.15-1.738s-1.217-.587-1.738-.15a9.36 9.36 0 0 1-14.081-2.385c1.89-1.248 3.21-3.313 3.4-5.743 1.476.434 3.037.668 4.65.668 9.24 0 16.495-7.58 16.495-16.4v-11.405a6.16 6.16 0 0 0-4.562-5.954c-7.824-2.08-16.04-2.08-23.865 0a6.16 6.16 0 0 0-4.563 5.954V380.5c0 6.2 3.638 12.04 9.404 14.797v.325c0 2.844-2.304 5.14-5.153 5.14-.374 0-.745.02-1.115.05-.756-1.782-2.51-2.985-4.462-3.027-4.43-.093-7.707-4.63-6.433-8.854.595-1.974-.108-4.138-1.75-5.385-3.514-2.67-3.527-8.266 0-10.945 1.642-1.247 2.345-3.41 1.75-5.385-1.275-4.226 2.006-8.76 6.433-8.855 2.06-.043 3.902-1.38 4.58-3.328 1.452-4.166 6.772-5.908 10.41-3.382 1.693 1.176 3.97 1.176 5.662 0 3.625-2.518 8.952-.8 10.41 3.382.68 1.947 2.52 3.285 4.58 3.328 4.41.094 7.712 4.615 6.433 8.855-.595 1.974.108 4.138 1.75 5.385 3.515 2.67 3.527 8.266 0 10.945-1.642 1.247-2.345 3.41-1.75 5.385.87 2.887-.36 6.1-2.99 7.8a1.23 1.23 0 0 0-.367 1.705c.37.572 1.132.736 1.705.367 3.55-2.293 5.2-6.64 4.015-10.574-.305-1.01.04-2.072.88-2.71 4.82-3.662 4.82-11.212 0-14.873zm-41.524 9.768v-6.35c7.512-2.533 15.486-2.96 23.096-1.354.667.14 1.32-.286 1.462-.952s-.286-1.32-.953-1.46c-7.758-1.637-15.888-1.277-23.605 1.173v-2.366c0-1.675 1.122-3.143 2.73-3.57 7.408-1.97 15.188-1.97 22.596 0 1.608.428 2.73 1.896 2.73 3.57v11.31c0 7.736-6.293 14.03-14.028 14.03s-14.028-6.293-14.028-14.03zm39.002 33.086v7.285c0 .68-.552 1.233-1.233 1.233s-1.234-.552-1.234-1.233v-7.285a10.26 10.26 0 0 0-10.262-10.263 7.57 7.57 0 0 1-6.515-3.658c-.354-.582-.17-1.34.412-1.695s1.34-.17 1.695.412a5.12 5.12 0 0 0 4.408 2.475c7.035-.001 12.73 5.693 12.73 12.73z" class="F"/></g></g><defs><clipPath id="A"><path d="M0 0h680v400H0z" class="B"/></clipPath><clipPath id="B"><path d="M532 148h74v74h-74z" class="B"/></clipPath><clipPath id="C"><path d="M82 148h74v74H82z" class="B"/></clipPath><clipPath id="D"><path d="M232 148h74v74h-74z" class="B"/></clipPath><clipPath id="E"><path d="M532 348h74v74h-74z" class="B"/></clipPath><clipPath id="F"><path d="M382 348h74v74h-74z" class="B"/></clipPath><clipPath id="G"><path d="M380 148h74v74h-74z" class="B"/></clipPath><clipPath id="H"><path d="M232 348h74v74h-74z" class="B"/></clipPath><path id="I" d="M312.5 188c0 24.024-19.476 43.5-43.5 43.5s-43.5-19.476-43.5-43.5 19.476-43.5 43.5-43.5 43.5 19.476 43.5 43.5z"/><path id="J" d="M564.848 175.783a5.03 5.03 0 0 0-2.94 5.865c.23.87-.782 1.546-1.47.967-1.08-.905-1.766-2.264-1.766-3.78 0-3.393 3.176-5.46 6.04-4.818a.93.93 0 0 1 .138 1.765z"/></defs></svg>