<svg xmlns="http://www.w3.org/2000/svg" width="680" height="400" fill="none" xmlns:v="https://vecta.io/nano"><path fill="#fff" d="M0 0h680v400H0z"/><path fill="#334e68" d="M0 0h680v400H0z"/><g fill="#87eaf2" opacity=".4"><circle r="2" transform="matrix(-1 0 0 1 590 24)"/><circle r="2" transform="matrix(-1 0 0 1 590 36.339)"/><circle r="2" transform="matrix(-1 0 0 1 590 48.678)"/><circle r="2" transform="matrix(-1 0 0 1 590 61.017)"/><circle r="2" transform="matrix(-1 0 0 1 590 73.3559)"/><circle r="2" transform="matrix(-1 0 0 1 602.339 73.3559)"/><circle r="2" transform="matrix(-1 0 0 1 614.678 73.3559)"/><circle r="2" transform="matrix(-1 0 0 1 627.017 73.3559)"/><circle r="2" transform="matrix(-1 0 0 1 639.356 73.3559)"/><circle r="2" transform="matrix(-1 0 0 1 602.339 61.017)"/><circle r="2" transform="matrix(-1 0 0 1 602.339 48.678)"/><circle r="2" transform="matrix(-1 0 0 1 602.339 36.339)"/><circle r="2" transform="matrix(-1 0 0 1 614.678 61.017)"/><circle r="2" transform="matrix(-1 0 0 1 614.678 48.678)"/><circle r="2" transform="matrix(-1 0 0 1 627.017 61.017)"/></g><g opacity=".4" fill="#87eaf2"><circle cx="34.071" cy="266.071" r="2.071"/><circle cx="34.071" cy="278.5" r="2.071"/><circle cx="34.071" cy="290.929" r="2.071"/><circle cx="34.071" cy="303.357" r="2.071"/><circle cx="34.071" cy="315.786" r="2.071"/><circle cx="34.071" cy="328.214" r="2.071"/><circle cx="34.071" cy="340.643" r="2.071"/><circle cx="34.071" cy="353.071" r="2.071"/><circle cx="34.071" cy="365.5" r="2.071"/><circle cx="34.071" cy="377.929" r="2.071"/><circle cx="46.5" cy="377.929" r="2.071"/><circle cx="46.5" cy="365.5" r="2.071"/><circle cx="46.5" cy="353.071" r="2.071"/><circle cx="46.5" cy="340.643" r="2.071"/><circle cx="46.5" cy="328.214" r="2.071"/><circle cx="46.5" cy="315.786" r="2.071"/><circle cx="46.5" cy="303.357" r="2.071"/><circle cx="46.5" cy="290.929" r="2.071"/><circle cx="46.5" cy="278.5" r="2.071"/><circle cx="58.929" cy="377.929" r="2.071"/><circle cx="58.929" cy="365.5" r="2.071"/><circle cx="58.929" cy="353.071" r="2.071"/><circle cx="58.929" cy="340.643" r="2.071"/><circle cx="58.929" cy="328.214" r="2.071"/><circle cx="58.929" cy="315.786" r="2.071"/><circle cx="58.929" cy="303.357" r="2.071"/><circle cx="58.929" cy="290.929" r="2.071"/><circle cx="71.357" cy="377.929" r="2.071"/><circle cx="71.357" cy="365.5" r="2.071"/><circle cx="71.357" cy="353.071" r="2.071"/><circle cx="71.357" cy="340.643" r="2.071"/><circle cx="71.357" cy="328.214" r="2.071"/><circle cx="71.357" cy="315.786" r="2.071"/><circle cx="71.357" cy="303.357" r="2.071"/><circle cx="83.786" cy="377.929" r="2.071"/><circle cx="83.786" cy="365.5" r="2.071"/><circle cx="83.786" cy="353.071" r="2.071"/><circle cx="83.786" cy="340.643" r="2.071"/><circle cx="83.786" cy="328.214" r="2.071"/><circle cx="83.786" cy="315.786" r="2.071"/><circle cx="96.214" cy="377.929" r="2.071"/><circle cx="96.214" cy="365.5" r="2.071"/><circle cx="96.214" cy="353.071" r="2.071"/><circle cx="96.214" cy="340.643" r="2.071"/><circle cx="96.214" cy="328.214" r="2.071"/><circle cx="108.643" cy="377.929" r="2.071"/><circle cx="108.643" cy="365.5" r="2.071"/><circle cx="108.643" cy="353.071" r="2.071"/><circle cx="108.643" cy="340.643" r="2.071"/><circle cx="108.643" cy="340.643" r="2.071"/><circle cx="121.071" cy="377.929" r="2.071"/><circle cx="121.071" cy="377.929" r="2.071"/><circle cx="121.071" cy="365.5" r="2.071"/><circle cx="121.071" cy="353.071" r="2.071"/><circle cx="133.5" cy="377.929" r="2.071"/><circle cx="133.5" cy="365.5" r="2.071"/><circle cx="145.929" cy="377.929" r="2.071"/></g><path d="M65.5 170a9.5 9.5 0 0 1 9.5-9.5h530a9.5 9.5 0 0 1 9.5 9.5v20a9.5 9.5 0 0 1-9.5 9.5H75a9.5 9.5 0 0 1-9.5-9.5v-20z" fill="#fff" stroke="#cbd2d9"/><g clip-path="url(#A)"><path d="M477.5 160H605a10 10 0 0 1 10 10v20a10 10 0 0 1-10 10H477.5v-40z" fill="#87eaf2"/></g><g fill="#fff"><path d="M126 29a7 7 0 0 1 7-7h414a7 7 0 1 1 0 14H133a7 7 0 0 1-7-7z"/><rect x="293" y="50" width="94" height="14" rx="7"/><rect x="65" y="103" width="550" height="14" rx="7"/></g><rect x="117" y="178" width="315" height="7" rx="3.5" fill="#98b3cd"/><rect x="511" y="178" width="70" height="7" rx="3.5" fill="#225a90"/><rect x="226" y="212" width="228" height="168" rx="6" fill="#5480ab"/><g clip-path="url(#B)"><path d="M403.995 308.932a8.75 8.75 0 0 0-.469-10.443l-5.477-6.74c-1.843-2.27-2.444-5.274-1.603-8.057l3.234-10.74c1.116-3.692-.326-7.667-3.563-9.85l-6.436-4.332c-3.177-2.14-4.63-6.01-3.624-9.656 1.526-5.502-2.557-10.966-8.372-11.212l-2.848-.122c-6.16-.26-11.337-4.618-12.528-10.54l-.2-1c-1.187-5.902-7.945-8.918-13.276-5.92-3.528 1.98-7.96 1.4-10.815-1.406l-2.4-2.344c-3.506-3.43-9.187-3.43-12.693 0l-5.223 5.116c-1.317 1.292-3.012 2.147-4.85 2.45l-10.797 1.785c-7.456 1.23-12.2 8.497-10.207 15.64l2.118 7.617c1.005 3.602-.43 7.434-3.574 9.552l-6.554 4.415c-3.202 2.153-4.623 6.078-3.524 9.727l3.277 10.87c.826 2.747.236 5.717-1.585 7.96l-5.563 6.847c-2.42 2.977-2.605 7.137-.465 10.31l5.36 7.946c2.132 3.162 1.953 7.308-.447 10.285l-.79.984c-3.377 4.186-3.016 10.185.834 13.956l7.613 7.606a26.55 26.55 0 0 0-3.635 13.451v14.046a2.86 2.86 0 0 0 2.862 2.862h104.465a2.86 2.86 0 0 0 2.862-2.862v-14.046c0-8.496-4.198-14.353-3.635-13.45.036-.018-.364.37 7.613-7.606 3.85-3.77 4.21-9.77.834-13.956l-.74-.923c-2.43-3.012-2.61-7.21-.45-10.414l5.267-7.8zm-14.357 37.983h.003a16.81 16.81 0 0 1 .319.425c-.104-.143-.21-.286-.322-.425z" fill="#c79a83"/><path d="M375.43 271.682v14.632c0 19.568-15.866 35.418-35.418 35.418-18.476 0-33.55-14.117-35.257-32.02-.094-.996.362-1.963 1.168-2.557 8.9-6.554 11.763-12.702 12.624-17.343.798-4.308-.122-7.334 1.79-11.806 2.898-6.78 10.436-12.082 19.515-12.082h9.82c14.226 0 25.758 11.533 25.758 25.76h0z" fill="#e0b7a3"/><path d="M375.43 286.314v-14.632c0-14.226-11.532-25.758-25.758-25.758h-9.82c-9.08 0-16.617 5.302-19.515 12.08-1.91 4.472-.99 7.5-1.79 11.806-.86 4.642-3.725 10.79-12.624 17.343-.806.594-1.262 1.56-1.167 2.558 1.265 13.285 9.87 24.432 21.715 29.34l-.053.128v2.444c0 8.15-6.605 14.8-14.822 14.8-9.828 0-18.414 5.316-23.043 13.226-.036-.018.364.37-7.613-7.606-3.85-3.77-4.21-9.77-.834-13.956l.79-.984c2.4-2.977 2.58-7.123.447-10.285l-5.36-7.946c-2.14-3.174-1.954-7.334.465-10.31l5.563-6.847c1.82-2.243 2.41-5.213 1.585-7.96l-3.277-10.87c-1.1-3.65.322-7.574 3.524-9.727l6.554-4.415c3.144-2.118 4.58-5.95 3.574-9.552l-2.118-7.617c-1.993-7.144 2.75-14.4 10.207-15.64l10.797-1.785c1.84-.304 3.534-1.16 4.85-2.45l5.223-5.116c3.506-3.43 9.187-3.43 12.693 0l2.4 2.344c2.856 2.797 7.29 3.386 10.815 1.406 5.33-2.998 12.09.018 13.276 5.92l.2 1c1.19 5.92 6.368 10.278 12.528 10.54l2.848.122c5.815.246 9.898 5.7 8.372 11.212-1.006 3.645.447 7.516 3.624 9.656l6.436 4.332c3.237 2.182 4.68 6.157 3.563 9.85l-3.234 10.74c-.84 2.783-.24 5.79 1.603 8.057l5.477 6.74a8.75 8.75 0 0 1 .469 10.443l-5.267 7.8c-2.16 3.205-1.978 7.402.45 10.414l.74.923c3.377 4.186 3.016 10.185-.834 13.956l-7.613 7.606c-4.676-7.975-13.304-13.254-23.12-13.226-8.174.022-14.746-6.757-14.746-14.93v-2.303l-.053-.132c12.843-5.317 21.876-17.97 21.876-32.735h0z" fill="#42434d"/><path d="M395.108 363.092v14.046c0 1.58-1.282 2.862-2.862 2.862H287.78c-1.58 0-2.862-1.282-2.862-2.862v-14.046c0-14.732 11.945-26.678 26.678-26.678a15.16 15.16 0 0 0 2.626-.229l.032.168c20.952 18.8 50.18 22.6 75.386 10.56a26.55 26.55 0 0 1 5.467 16.178h0z" fill="#d6f4fc"/><path d="M385.395 342.503l-1.18-.92 1.18.92z" fill="#c79a83"/><path d="M354.012 325.055c-8.814 3.7-18.5 3.976-27.998 0 .486-2.012.405-3.316.405-5.874l.053-.132c8.616 3.576 18.45 3.583 27.082 0l.054.132c0 2.56-.08 3.863.404 5.874z" fill="#a07765"/><g fill="#c79a83"><path d="M384.214 341.584l1.18.92-1.18-.92zm5.746 5.756l-.322-.426h.004l.318.426z"/></g><path d="M335.675 224.853c-3.924 3.802-5.153 5.828-8.863 6.442-4.484.742-25.468 1.42-21.004 17.426l2.118 7.617c1.006 3.603-.43 7.434-3.574 9.552l-6.554 4.415c-3.202 2.153-4.622 6.078-3.524 9.727l3.277 10.87c.827 2.747.236 5.717-1.585 7.96l-5.563 6.847a8.64 8.64 0 0 0-.465 10.311l5.36 7.946c2.133 3.162 1.954 7.31-.447 10.285l-.8.984c-1.88 2.33-2.6 5.22-2.207 7.975.15 1.04-.162 2.092-.83 2.9-1.552 1.878-4.15 1.856-5.678.33l-4.404-4.404c-3.85-3.77-4.2-9.77-.833-13.956l.8-.984c2.4-2.976 2.58-7.123.448-10.285l-5.36-7.946a8.64 8.64 0 0 1 .465-10.311l5.564-6.847a8.65 8.65 0 0 0 1.584-7.96l-3.277-10.87c-1.098-3.65.322-7.573 3.524-9.727l6.554-4.415c3.145-2.118 4.58-5.95 3.574-9.552l-2.118-7.617c-1.992-7.144 2.752-14.4 10.207-15.64l10.797-1.785a9.03 9.03 0 0 0 4.852-2.45l5.223-5.116c3.506-3.43 9.187-3.43 12.693 0 2.477 2.43 2.276 6.122.048 8.28h0z" fill="#4d4e59"/><path d="M331.428 309.592c5.896 3.173 1.7 12.117-4.52 9.638-12.045-4.8-20.868-16.047-22.152-29.517-.097-.998.36-1.964 1.166-2.558 3.094-2.28 5.46-4.508 7.262-6.643a2.8 2.8 0 0 0-.2 1.33c1.202 12.613 8.615 22.46 18.443 27.75h0z" fill="#f2d1c2"/><path d="M389.96 347.34l-.322-.426h.004l.318.426z" fill="#c79a83"/><path d="M318.097 339.56c1.902 1.475 1.232 4.477-1.107 5.047-14.826 3.607-21.338 14.012-21.338 25.64V380h-7.87c-1.58 0-2.862-1.282-2.862-2.862v-14.046c0-14.732 11.945-26.678 26.678-26.678a15.16 15.16 0 0 0 2.626-.229l.032.168c1.042.937 2.323 2.03 3.842 3.208z" fill="#e8f8fc"/><path d="M395.108 363.092v14.046a2.86 2.86 0 0 1-2.862 2.862h-7.87v-9.753c0-7.09-2.422-13.73-7.677-18.646 6.074-1.56 10.586-3.56 12.943-4.687a26.55 26.55 0 0 1 5.467 16.178h0z" fill="#bdeffc"/><path d="M389.64 346.915c-2.357 1.127-6.87 3.126-12.943 4.686-2.427-2.274-5.46-4.18-9.136-5.59-4.02-1.543-4.068-4.38-3.344-6.612.583-1.8 2.277-3 4.168-2.984 8.22.026 16.096 3.734 21.256 10.5z" fill="#a07765"/></g><rect x="298.5" y="245.5" width="83" height="83" rx="12.5" stroke="#87eaf2" stroke-width="5"/><defs><clipPath id="A"><path fill="#fff" d="M477.5 160H615v40H477.5z"/></clipPath><clipPath id="B"><path fill="#fff" d="M257 214h166v166H257z"/></clipPath></defs></svg>