<svg xmlns="http://www.w3.org/2000/svg" width="680" height="400" fill="none" xmlns:v="https://vecta.io/nano"><style><![CDATA[.B{fill:#3e3127}.C{fill:#fff}.D{fill:#e8af94}.E{fill:#b55c4e}.F{fill:#fdd2bf}.G{fill:#d59254}.H{fill:#dbcec8}.I{fill:#87eaf2}.J{fill:#f9b47a}]]></style><path d="M0 0h680v400H0z" class="C"/><path fill="#334e68" d="M0 0h680v400H0z"/><g opacity=".4" class="I"><circle r="2" transform="matrix(-1 0 0 1 590 24)"/><circle r="2" transform="matrix(-1 0 0 1 590 36.339)"/><circle r="2" transform="matrix(-1 0 0 1 590 48.678)"/><circle r="2" transform="matrix(-1 0 0 1 590 61.017)"/><circle r="2" transform="matrix(-1 0 0 1 590 73.3559)"/><circle r="2" transform="matrix(-1 0 0 1 602.339 73.3559)"/><circle r="2" transform="matrix(-1 0 0 1 614.678 73.3559)"/><circle r="2" transform="matrix(-1 0 0 1 627.017 73.3559)"/><circle r="2" transform="matrix(-1 0 0 1 639.356 73.3559)"/><circle r="2" transform="matrix(-1 0 0 1 602.339 61.017)"/><circle r="2" transform="matrix(-1 0 0 1 602.339 48.678)"/><circle r="2" transform="matrix(-1 0 0 1 602.339 36.339)"/><circle r="2" transform="matrix(-1 0 0 1 614.678 61.017)"/><circle r="2" transform="matrix(-1 0 0 1 614.678 48.678)"/><circle r="2" transform="matrix(-1 0 0 1 627.017 61.017)"/></g><g opacity=".4" class="I"><circle cx="34.071" cy="266.071" r="2.071"/><circle cx="34.071" cy="278.5" r="2.071"/><circle cx="34.071" cy="290.929" r="2.071"/><circle cx="34.071" cy="303.357" r="2.071"/><circle cx="34.071" cy="315.786" r="2.071"/><circle cx="34.071" cy="328.214" r="2.071"/><circle cx="34.071" cy="340.643" r="2.071"/><circle cx="34.071" cy="353.071" r="2.071"/><circle cx="34.071" cy="365.5" r="2.071"/><circle cx="34.071" cy="377.929" r="2.071"/><circle cx="46.5" cy="377.929" r="2.071"/><circle cx="46.5" cy="365.5" r="2.071"/><circle cx="46.5" cy="353.071" r="2.071"/><circle cx="46.5" cy="340.643" r="2.071"/><circle cx="46.5" cy="328.214" r="2.071"/><circle cx="46.5" cy="315.786" r="2.071"/><circle cx="46.5" cy="303.357" r="2.071"/><circle cx="46.5" cy="290.929" r="2.071"/><circle cx="46.5" cy="278.5" r="2.071"/><circle cx="58.929" cy="377.929" r="2.071"/><circle cx="58.929" cy="365.5" r="2.071"/><circle cx="58.929" cy="353.071" r="2.071"/><circle cx="58.929" cy="340.643" r="2.071"/><circle cx="58.929" cy="328.214" r="2.071"/><circle cx="58.929" cy="315.786" r="2.071"/><circle cx="58.929" cy="303.357" r="2.071"/><circle cx="58.929" cy="290.929" r="2.071"/><circle cx="71.357" cy="377.929" r="2.071"/><circle cx="71.357" cy="365.5" r="2.071"/><circle cx="71.357" cy="353.071" r="2.071"/><circle cx="71.357" cy="340.643" r="2.071"/><circle cx="71.357" cy="328.214" r="2.071"/><circle cx="71.357" cy="315.786" r="2.071"/><circle cx="71.357" cy="303.357" r="2.071"/><circle cx="83.786" cy="377.929" r="2.071"/><circle cx="83.786" cy="365.5" r="2.071"/><circle cx="83.786" cy="353.071" r="2.071"/><circle cx="83.786" cy="340.643" r="2.071"/><circle cx="83.786" cy="328.214" r="2.071"/><circle cx="83.786" cy="315.786" r="2.071"/><circle cx="96.214" cy="377.929" r="2.071"/><circle cx="96.214" cy="365.5" r="2.071"/><circle cx="96.214" cy="353.071" r="2.071"/><circle cx="96.214" cy="340.643" r="2.071"/><circle cx="96.214" cy="328.214" r="2.071"/><circle cx="108.643" cy="377.929" r="2.071"/><circle cx="108.643" cy="365.5" r="2.071"/><circle cx="108.643" cy="353.071" r="2.071"/><circle cx="108.643" cy="340.643" r="2.071"/><circle cx="108.643" cy="340.643" r="2.071"/><circle cx="121.071" cy="377.929" r="2.071"/><circle cx="121.071" cy="377.929" r="2.071"/><circle cx="121.071" cy="365.5" r="2.071"/><circle cx="121.071" cy="353.071" r="2.071"/><circle cx="133.5" cy="377.929" r="2.071"/><circle cx="133.5" cy="365.5" r="2.071"/><circle cx="145.929" cy="377.929" r="2.071"/></g><path d="M65.5 170a9.5 9.5 0 0 1 9.5-9.5h530a9.5 9.5 0 0 1 9.5 9.5v20a9.5 9.5 0 0 1-9.5 9.5H75a9.5 9.5 0 0 1-9.5-9.5v-20z" stroke="#cbd2d9" class="C"/><g clip-path="url(#A)" class="I"><path d="M477.5 160H605a10 10 0 0 1 10 10v20a10 10 0 0 1-10 10H477.5v-40z"/></g><g class="C"><path d="M126 29a7 7 0 0 1 7-7h414a7 7 0 1 1 0 14H133a7 7 0 0 1-7-7z"/><rect x="293" y="50" width="94" height="14" rx="7"/><rect x="65" y="103" width="550" height="14" rx="7"/></g><rect x="117" y="178" width="315" height="7" rx="3.5" fill="#98b3cd"/><rect x="511" y="178" width="70" height="7" rx="3.5" fill="#225a90"/><rect x="226" y="212" width="228" height="168" rx="6" fill="#5480ab"/><path d="M336.56 334.856h7.97c2.22 0 4.35.89 5.92 2.472a8.48 8.48 0 0 1 2.452 5.97V378.5h-24.7v-35.212a8.48 8.48 0 0 1 2.451-5.97c1.57-1.583 3.7-2.472 5.92-2.472z" class="C"/><path d="M353.076 341.196v38.053s-5.032.6-4.78 0c2.9-6.756 2.233-43.624 2.233-43.624a7.26 7.26 0 0 1 1.886 2.501c.44.962.665 2 .66 3.07z" class="H"/><path d="M352.976 339.57c4.25 0 6.472 3.476 6.472 7.763v24.056h-6.778l.306-31.82z" class="C"/><path d="M354.922 339.702h-1.924v32.183h1.924v-32.183z" class="H"/><path d="M352.9 371.693v6.48h.15c3.35 0 6.078-2.902 6.078-6.48H352.9z" class="F"/><path d="M354.718 372.03v6.314c-.448.108-.906.163-1.366.165h-.15v-6.48h1.515z" class="D"/><g class="B"><path d="M359.686 351.5h-1.116v1.314h1.116V351.5zm0 3.344h-1.116v2.83h1.116v-2.83zm0 4.853h-1.116v1.314h1.116v-1.314zM352.108 380h-3.327v-1.5h3.327c.04 0 .076-.016.103-.043a.15.15 0 0 0 .043-.104V340.89a4.48 4.48 0 0 0-1.294-3.147c-.828-.834-1.95-1.304-3.12-1.305h-1.812v-1.5h1.812c1.565.002 3.066.63 4.172 1.746a5.98 5.98 0 0 1 1.73 4.207v37.464a1.66 1.66 0 0 1-.479 1.164 1.63 1.63 0 0 1-1.155.484z"/><path d="M353.147 379.028h-.15v-1.502h.15c2.94 0 5.33-2.57 5.33-5.728v-10.172h1.5V371.8c0 3.986-3.04 7.218-6.82 7.218zm6.82-28.272h-1.5v-4.576c0-3.16-2.4-5.728-5.33-5.728h-.15v-1.5h.15c3.76 0 6.82 3.243 6.82 7.23v4.576z"/><path d="M359.22 371.06h-6.223v1.5h6.223v-1.5z"/></g><path d="M329.088 371.39c-2.04 0-3.996-.816-5.44-2.27s-2.256-3.425-2.258-5.482v-24.06h7.697v31.81z" class="C"/><path d="M325.917 371.88h1.924v-32.183h-1.924v32.183z" class="H"/><path d="M327.94 371.693v6.48h-.152c-3.35 0-6.078-2.902-6.078-6.48h6.23z" class="F"/><path d="M326.12 372.03v6.314c.45.108.91.164 1.37.165h.15v-6.48h-1.52z" class="D"/><g class="B"><path d="M322.273 351.5h-1.117v1.314h1.117V351.5zm0 3.344h-1.117v2.83h1.117v-2.83zm0 4.853h-1.117v1.314h1.117v-1.314zM348.78 380h-20.047a1.63 1.63 0 0 1-1.154-.484 1.66 1.66 0 0 1-.48-1.164v-37.464a5.99 5.99 0 0 1 1.731-4.207c1.107-1.116 2.607-1.744 4.172-1.746h13.027v1.5h-13.027a4.4 4.4 0 0 0-3.12 1.305c-.828.835-1.293 1.967-1.294 3.147v37.464a.15.15 0 0 0 .145.147h20.047v1.5z"/><path d="M327.845 379.028h-.15c-3.76 0-6.823-3.243-6.823-7.23v-10.172h1.5V371.8c0 3.157 2.393 5.728 5.334 5.728h.15v1.5zm-5.483-28.272h-1.5v-4.576c0-3.986 3.063-7.23 6.823-7.23h.15v1.5h-.15c-2.94 0-5.334 2.568-5.334 5.728v4.576z"/><path d="M327.84 371.06h-6.223v1.5h6.223v-1.5z"/></g><path d="M321.82 370a.37.37 0 0 1-.257-.105c-.035-.035-.063-.076-.082-.122s-.028-.095-.028-.144.01-.1.028-.145a.37.37 0 0 1 .082-.122l3.726-3.874a.36.36 0 0 1 .121-.082.37.37 0 0 1 .286 0 .38.38 0 0 1 .121.612l-3.73 3.87c-.035.036-.077.064-.123.083s-.096.03-.145.03zm1.525-3.563c-.073 0-.144-.022-.205-.063a.37.37 0 0 1-.136-.165c-.028-.067-.037-.142-.024-.214a.37.37 0 0 1 .097-.192l2.233-2.335a.37.37 0 0 1 .62.258.38.38 0 0 1-.084.26l-2.233 2.338a.37.37 0 0 1-.123.084c-.046.02-.096.03-.145.03z" fill="#3c3127"/><path d="M329.854 362.715a.72.72 0 0 1 .082.375v.244c.004.065.004.13 0 .195a3.34 3.34 0 0 0 0 .548c.03.342 0 2.087 0 2.253v2.203a1.98 1.98 0 0 1 0 .218l.045.938v.717c-.026.5 0 .995 0 1.5v.304a1.6 1.6 0 0 0 0 .196c.018.348.018.698 0 1.047a.51.51 0 0 0 0 .135c.03.26 0 .514 0 .773v1.295c-.002.02-.002.038 0 .056a5.26 5.26 0 0 1-.026.905c-.023.183-.023.37 0 .552.005.036.005.073 0 .1-.022.18 0 .375-.026.548v.026c0 .007-.116.06-.142.06-.114-.036-.223-.088-.323-.154-.003-.025-.003-.05 0-.075a.38.38 0 0 0-.075-.218c-.022-.04-.03-.086-.026-.13.034-.375 0-.75.022-1.1v-2.838c-.007-.137-.007-.275 0-.412v-3.55c.002-.018.002-.035 0-.053-.044-.32-.026-1.3-.026-1.36v-2.57l.03-2.252a.24.24 0 0 1 .034-.128c0-.037.026-.082.044-.12s.052-.056.067-.094.023-.087.03-.13c.001-.01.003-.018.008-.026s.01-.014.018-.02.017-.01.025-.01a.08.08 0 0 1 .027.003c.06.018.18.03.212.04zm19.34 13.498a2.95 2.95 0 0 0 2.937-2.962c0-1.636-1.315-2.96-2.937-2.96s-2.937 1.325-2.937 2.96a2.95 2.95 0 0 0 2.937 2.962zm-3.167-6.85a1.145 1.145 0 1 0 0-2.289 1.145 1.145 0 1 0 0 2.289z" class="H"/><path d="M345.17 329.492c0-2.69-2.163-4.872-4.832-4.872s-4.83 2.18-4.83 4.872v8.12c0 2.69 2.163 4.872 4.83 4.872s4.832-2.18 4.832-4.872v-8.12z" class="F"/><path d="M344.694 330.948v5.214c-4.578-1.197-7.637-2.886-9.677-4.707v-.18l9.677-.327z" class="D"/><g class="B"><path d="M340.254 343.238c-1.48 0-2.9-.594-3.948-1.65a5.65 5.65 0 0 1-1.635-3.982v-8.126a5.65 5.65 0 0 1 1.635-3.98 5.56 5.56 0 0 1 3.948-1.65c1.48 0 2.9.594 3.948 1.65a5.65 5.65 0 0 1 1.635 3.98v8.123a5.68 5.68 0 0 1-.424 2.155c-.28.683-.692 1.305-1.2 1.828a5.6 5.6 0 0 1-1.812 1.222 5.55 5.55 0 0 1-2.137.43zm0-17.867c-1.086 0-2.128.435-2.895 1.2s-1.2 1.825-1.2 2.92v8.122c0 1.095.432 2.146 1.2 2.92a4.08 4.08 0 0 0 5.79.001c.768-.774 1.2-1.825 1.2-2.92v-8.14a4.15 4.15 0 0 0-1.206-2.908c-.767-.77-1.806-1.202-2.888-1.202zm1.476 12.124a1.63 1.63 0 0 1-.639.631 1.62 1.62 0 0 1-.873.193c-.303-.02-.595-.124-.842-.302s-.44-.423-.556-.706c-.023-.045.1-.2.297-.263a.74.74 0 0 1 .373-.03.96.96 0 0 0 .433.543.95.95 0 0 0 .683.106c.16-.023.313-.082.447-.172l.13-.158c.063-.068.134-.13.227-.086.212.112.343.202.32.244zm-17.37-6.137l-.064-3.003c0-.038.164-.135.373-.143s.372.1.372.128l-.127 2.004-.067.593c0 .038.075.47-.13.477s-.357-.023-.357-.056z"/><path d="M325.56 328.133l-2.133 3.056a.44.44 0 0 1-.21.012.44.44 0 0 1-.19-.09c-.167-.12-.234-.315-.208-.353l1.552-1.956.487-.555c.027-.038.28-.518.447-.398s.28.248.253.285zm40.33-1.115l-2.483-4.147a.45.45 0 0 1 .061-.212.44.44 0 0 1 .156-.156c.064-.037.137-.058.2-.06a.43.43 0 0 1 .213.051l1.526 2.857.42.86c.03.05.447.616.268.72s-.342.14-.372.086z"/><path d="M364.562 321.617l-.476 6.1a.42.42 0 0 1-.158.182.41.41 0 0 1-.233.062.42.42 0 0 1-.35-.301l.47-4.068.175-1.194c0-.075 0-.96.212-.946s.37.1.36.165zm12.228-82.2l-.227 4.857c-.038.064-.093.116-.16.15a.42.42 0 0 1-.213.048c-.205 0-.372-.177-.372-.233l.305-3.232.126-.946c0-.06-.033-.75.175-.75s.37.045.365.105z"/><path d="M374.913 244.65l3.76-4.8a.41.41 0 0 1 .461 0c.063.054.108.125.13.205s.02.164-.007.242l-2.632 3.116-.804.893c-.048.06-.535.796-.7.664s-.253-.26-.2-.32zm-59.705 83.018l.372-3.003a.49.49 0 0 1 .178-.079c.064-.015.13-.016.195-.004.204.027.372.143.353.18l-.4 1.978-.157.574c0 .038 0 .477-.197.45s-.34-.06-.335-.097z"/><path d="M316.872 324.66l-2.565 2.703c-.03.034-.234 0-.372-.14s-.186-.345-.152-.375l1.823-1.7.562-.477c.03-.033.373-.47.503-.326s.23.28.2.315zm57.494-11.05l-2.77-1.126a.46.46 0 0 1-.034-.2c.004-.067.02-.136.053-.197.074-.192.227-.312.26-.297l1.794.897.514.297c.033 0 .458.116.372.308s-.138.334-.2.32z"/><path d="M371.902 311.227l1.943 3.187c.026.038-.052.23-.227.338a.44.44 0 0 1-.196.08.44.44 0 0 1-.21-.023l-1.168-2.218-.317-.672c-.022-.038-.372-.462-.186-.57s.34-.157.36-.12zm-68.697-8.355l1.47-2.628c.018-.033.212-.033.4.068s.275.27.257.3l-1.117 1.678-.372.473c0 .034-.172.443-.35.342s-.298-.203-.28-.233z"/><path d="M305.866 300.717l-3.383 1.532c-.04.018-.22-.087-.302-.274a.44.44 0 0 1-.052-.207c0-.072.018-.143.052-.206l2.326-.882.7-.226c.04 0 .503-.304.584-.112s.116.356.075.375z"/></g><path d="M305.497 277.94s-7.235-14.377 4.396-31.155h6.272v31.155h-10.668z" class="G"/><path d="M317.025 249.128v3.435l-3.428-.886c-1.768-.512-3.478-1.206-5.103-2.072a38.99 38.99 0 0 1 1.95-3.187 25.82 25.82 0 0 0 5.877 2.511l.704.2z" class="E"/><path d="M317.077 278.88h-12.17l-.257-.514c-.078-.154-1.902-3.833-2.263-9.65-.335-5.34.57-13.554 6.73-22.457l.276-.398h7.686v33.02zm-10.995-1.877h9.134v-29.278h-4.84c-9.633 14.223-5.386 26.643-4.295 29.278z" class="B"/><path d="M307.783 278.98h-2.937c-3.82 0-6.915 3.123-6.915 6.975v.003c0 3.852 3.096 6.974 6.915 6.974h2.937c3.82 0 6.915-3.122 6.915-6.974v-.003c0-3.852-3.096-6.975-6.915-6.975z" class="C"/><path d="M308.174 280.253h-2.226c-2.897 0-5.245 2.368-5.245 5.29s2.348 5.288 5.245 5.288h2.226c2.896 0 5.244-2.368 5.244-5.288s-2.348-5.29-5.244-5.29z" class="F"/><path d="M307.794 293.47h-2.948a7.82 7.82 0 0 1-5.44-2.378c-1.435-1.48-2.24-3.467-2.24-5.536s.804-4.057 2.24-5.537a7.82 7.82 0 0 1 5.44-2.378h2.948a7.82 7.82 0 0 1 5.44 2.378c1.435 1.48 2.24 3.467 2.24 5.537s-.804 4.057-2.24 5.536a7.82 7.82 0 0 1-5.44 2.378zm-2.937-13.952c-1.562.04-3.047.693-4.138 1.82s-1.7 2.64-1.7 4.217.6 3.09 1.7 4.217 2.576 1.78 4.138 1.82h2.937c1.562-.04 3.047-.692 4.138-1.82s1.7-2.642 1.7-4.217-.6-3.09-1.7-4.217-2.576-1.782-4.138-1.82h-2.937z" class="B"/><path d="M374.154 278.98h-2.937c-3.82 0-6.915 3.123-6.915 6.975v.003c0 3.852 3.096 6.974 6.915 6.974h2.937c3.82 0 6.916-3.122 6.916-6.974v-.003c0-3.852-3.097-6.975-6.916-6.975z" fill="#dda38c"/><path d="M373.625 281.082h-1.88c-2.442 0-4.422 1.997-4.422 4.46v.003c0 2.463 1.98 4.46 4.422 4.46h1.88c2.443 0 4.422-1.997 4.422-4.46v-.003c0-2.463-1.98-4.46-4.422-4.46z" class="F"/><path d="M374.154 293.47h-2.933c-1.045.023-2.084-.165-3.056-.552a7.84 7.84 0 0 1-2.605-1.704c-.747-.737-1.34-1.617-1.746-2.59a7.98 7.98 0 0 1-.614-3.069c0-1.054.21-2.098.614-3.07a7.94 7.94 0 0 1 1.746-2.59 7.84 7.84 0 0 1 2.605-1.703 7.78 7.78 0 0 1 3.056-.553h2.933a7.82 7.82 0 0 1 5.44 2.378c1.435 1.48 2.24 3.467 2.24 5.537s-.804 4.057-2.24 5.536a7.82 7.82 0 0 1-5.44 2.378zm-2.933-13.952c-.8-.02-1.593.12-2.337.416s-1.422.736-1.994 1.298-1.026 1.235-1.337 1.978a6.09 6.09 0 0 0 0 4.692 6.05 6.05 0 0 0 1.337 1.977 5.99 5.99 0 0 0 1.994 1.299 5.95 5.95 0 0 0 2.337.415h2.933c1.562-.04 3.047-.692 4.138-1.82s1.7-2.642 1.7-4.217-.6-3.09-1.7-4.217-2.576-1.782-4.138-1.82h-2.933z" class="B"/><path d="M373.42 274.176c0-18.678-15.015-33.82-33.536-33.82s-33.535 15.142-33.535 33.82v21.692c0 18.678 15.014 33.82 33.535 33.82s33.536-15.14 33.536-33.82v-21.692z" class="F"/><path d="M340.715 330.23l-1.29.027c-4.404 0-8.765-.875-12.834-2.575s-7.765-4.2-10.88-7.33c-6.3-6.342-9.823-14.944-9.823-23.914v-21.703c0-4.442.868-8.84 2.554-12.944s4.156-7.832 7.27-10.973a33.53 33.53 0 0 1 10.882-7.33 33.3 33.3 0 0 1 12.836-2.573c.432 0-2.114 0-1.686.027-17.925.68-28.153 15.55-28.153 33.782v21.692c-.008 18.253 13.198 33.125 31.123 33.815z" class="C"/><path d="M303.573 282.892c-.475.3-.868.713-1.143 1.204a3.4 3.4 0 0 0-.049 3.232 3.37 3.37 0 0 0 1.107 1.239 1.49 1.49 0 0 1-.201.98c-.24.458-.745.657-.845.574a5.18 5.18 0 0 1-1.861-2.8 5.02 5.02 0 0 1 .238-3.239 4.7 4.7 0 0 1 1.116-1.48 2.58 2.58 0 0 1 .548-.541c.286-.203.62-.293.744-.067.26.457.4.855.346.897zm72.922-1.662c.736.465 1.346 1.1 1.772 1.873a5.29 5.29 0 0 1 .671 2.499c.013.876-.2 1.742-.595 2.518a5.24 5.24 0 0 1-1.714 1.927c-.112.082-.607-.12-.845-.578-.178-.292-.25-.637-.2-.976a3.48 3.48 0 0 0 1.49-1.708 3.72 3.72 0 0 0 .142-2.398c-.1-.5-.314-.97-.603-1.4l-.48-.436c-.215-.2-.42-.416-.294-.645.253-.447.547-.76.66-.687z" class="B"/><path d="M370.968 280.92c.057.08.084.18.078.278v.19a.9.9 0 0 1 0 .147c-.005.14.001.28.02.42.03.26 0 1.59 0 1.727v.923c.018.105 0 .62 0 .75a1.59 1.59 0 0 1 0 .169c0 .24.056.476.048.717v.548c-.022.375 0 .75 0 1.126v.38c.02.267.02.536 0 .803a.92.92 0 0 0 0 .105 5.26 5.26 0 0 1 0 .589v.188a.94.94 0 0 0 0 .15v.653c-.002.014-.002.028 0 .042.018.23.01.464-.026.694-.022.14-.022.28 0 .42.004.028.004.056 0 .083 0 .14 0 .282-.022.42 0 .042-.116.068-.138.068-.112-.027-.22-.066-.324-.116-.01-.02-.016-.04-.018-.06-.004-.063-.03-.122-.075-.166-.01-.013-.02-.03-.024-.047s-.005-.036-.002-.054c.034-.278 0-.56.022-.84v-2.15a1.84 1.84 0 0 1 0-.315V286a8.54 8.54 0 0 1-.033-1.036V283l.033-1.726c.001-.035.01-.07.03-.098s.03-.064.05-.1.048-.045.067-.07l.026-.102c.003-.007.007-.015.013-.02s.012-.01.02-.015.016-.005.024-.005.017.001.025.004l.208.045z" class="D"/><g class="C"><path d="M317.006 254.87c-.836 1.23-1.575 2.524-2.21 3.87l-.968 2.042a10.78 10.78 0 0 0-.774 2.042c-.026.098-.238.338-.44.308s-.313-.375-.283-.484c.307-.99.715-1.942 1.217-2.846l1.41-2.69.96-1.5c.045-.102.745-1.235.9-1.126s.25.3.186.386z"/><path opacity=".8" d="M311.408 266.023l.424-2.117a.57.57 0 0 1 .373 0c.2.04.353.143.346.17l-.432 1.385-.164.398c0 .026 0 .345-.205.304s-.35-.116-.342-.14z"/></g><path d="M340.06 297.174a.93.93 0 0 1-.658-.275.94.94 0 0 1-.272-.663V286.6a.94.94 0 0 1 .272-.663c.174-.176.4-.275.658-.275a.93.93 0 0 1 .658.275.94.94 0 0 1 .273.663v9.636a.94.94 0 0 1-.273.663c-.174.176-.4.275-.658.275zm-.406 34.436a34.36 34.36 0 0 1-24.36-10.191c-6.46-6.517-10.096-15.352-10.106-24.567V275.16c0-9.218 3.632-18.06 10.095-24.577s15.23-10.18 24.37-10.18 17.908 3.662 24.372 10.18 10.094 15.36 10.094 24.577v21.692c-.01 9.215-3.644 18.05-10.105 24.567s-15.223 10.18-24.36 10.2zm0-89.335c-8.645.01-16.933 3.478-23.045 9.643s-9.55 14.524-9.56 23.242v21.692c0 8.72 3.436 17.084 9.55 23.25s14.408 9.63 23.055 9.63 16.94-3.464 23.056-9.63 9.55-14.53 9.55-23.25V275.16c-.01-8.717-3.448-17.075-9.56-23.24s-14.4-9.632-23.045-9.642v-.004z" class="B"/><path d="M373.22 277.757c-6.16-7.72-9.655-19.275-10.344-29.158-9.483 2.027-19.075 4.065-28.77 3.802-6.22-.17-12.655-.878-18.644-2.627-7.295-2.155-12.6-6.704-15.267-13.94l-1.89-5.446s13.857 5.668 34.9-6.757 41.8 5.9 41.8 22.676l5.434-2.894s3.722 22.664-6.227 34.044" class="G"/><path d="M363.32 253.137c-9.65.972-20.02 2.406-29.627 1.07-6.164-.856-10.99-1.502-16.75-3.934h.346c.167-.176-1.523-.35-1.348-.518 5.83 1.652 12.06 2.32 18.093 2.49 9.305.25 18.5-1.614 27.607-3.555.44.396.872.803 1.29 1.224" fill="#dda18a"/><path d="M362.22 247.785c-9.484 2.03-19.068 4.065-28.77 3.802-6.22-.17-12.655-.878-18.644-2.628-7.28-2.154-12.595-6.703-15.268-13.937l-1.9-5.46a19.27 19.27 0 0 0 4.235.995l5.88.033c-.052 0 .897 3.987.994 4.37.35 1.392 1.306 2.698 2.177 3.84 0 0 6.968 12.196 51.41 9.137" class="J"/><path d="M373.88 277.355l-.63.676-.648-.845a40.6 40.6 0 0 0 2.773-19.305c-.657-6.567-2.904-12.87-6.543-18.357s-8.558-9.987-14.326-13.106-12.207-4.763-18.752-4.785c20.01-9.226 38.906 8.21 38.906 24.21l5.434-2.894s3.748 23.024-6.215 34.405z" class="E"/><g class="B"><path d="M311.66 245.668l-1.22-.826c.06-.25.207-.47.413-.623l.745.68.193.233s.227.07.116.244a1.08 1.08 0 0 1-.246.293zm7.598 2.158a18.85 18.85 0 0 1-5.955-1.333c-.062-.055-.105-.127-.125-.208a.41.41 0 0 1 .017-.242c.032-.073.084-.135.15-.18a.41.41 0 0 1 .222-.069 17.84 17.84 0 0 0 3.752 1.216l1.15.237c.074 0 .93 0 .923.2s-.06.372-.134.368zm15.926-22.74a16.83 16.83 0 0 1-4.79 2.627.39.39 0 0 1-.215-.085c-.062-.05-.108-.117-.13-.193a.42.42 0 0 1-.008-.228.41.41 0 0 1 .112-.199 16.12 16.12 0 0 0 3.231-1.378l.915-.5c.06-.03.626-.548.745-.376s.193.3.14.342zm2.3-1.217l-1.53.818s-.15-.113-.242-.297c-.072-.112-.1-.242-.108-.375l1.094-.413.34-.086c.018 0 .208-.188.305 0a.98.98 0 0 1 .142.353zm-28.305 28.464a7.36 7.36 0 0 0-.481 2.451.54.54 0 0 1-.372.109.5.5 0 0 1-.199-.025.49.49 0 0 1-.173-.103 8.37 8.37 0 0 1 .402-1.8l.227-.485c0-.03.078-.424.268-.345s.34.162.328.188zm1.193-.24l-.647 1.77a.64.64 0 0 1-.373-.052.65.65 0 0 1-.32-.207l.577-1.126.205-.32c0-.022.037-.3.23-.23s.353.14.327.162zm66.022 5.784c.273 6.63-.624 13.255-2.65 19.567-.08.233-.432.788-.626.72s-.16-.72-.085-.95c1.386-4.147 2.278-8.447 2.657-12.807.123-1.284.212-2.57.238-3.862l-.018-1.633c-.02-.74 0-1.453.093-1.457.053.002.105.014.154.036a.39.39 0 0 1 .128.092.4.4 0 0 1 .109.293z"/><path d="M378.512 262.776c-.992 5.014-2.43 9.927-4.298 14.68-.07.177-.406.57-.596.492s-.164-.597-.097-.77c1.286-3.133 2.383-6.34 3.287-9.606l.78-2.894c.053-.18.428-2.35.626-2.312.09.018.172.07.228.146s.08.17.07.263z"/></g><path d="M361.466 326.155c-4.55 2.92-9.953 5.364-15.745 5.364l-11.095.375c-5.79 0-11.196-2.82-15.744-5.74-9.6-6.148-14.602-17.488-13.128-28.846l.618-4.782s9.44 12.18 20.21 13.28c3.54.357.193-7.556 13.526-7.526h.13c11.237 0 9.986 7.883 13.526 7.526 10.77-1.092 20.2-13.28 20.2-13.28l.618 4.782c1.474 11.358-3.525 22.698-13.127 28.846z" class="G"/><path d="M341.04 331.436c-.428.02-1.604.402-2.036.402-3.904 0-7.202-.375-11.147-.548-3.336-.742-6.517-2.068-9.398-3.92-9.585-6.148-14.602-17.488-13.128-28.846l.603-4.782s.77.9 3.246 3.28c-5.803 20.115 14.073 33.737 31.86 34.412z" class="C"/><path d="M360.647 327.04c-4.704 3.02-10.167 4.622-15.744 4.613h-4.623c5.577.01 11.04-1.592 15.744-4.613 9.584-6.148 14.602-17.488 13.128-28.846l-.05-.375a45.57 45.57 0 0 0 4.068-4.415l.618 4.782c1.474 11.366-3.543 22.706-13.142 28.854zm.618-92.9c-2.74-3.723-6.552-6.5-10.917-7.953-.16-.053-.532-.35-.477-.548s.54-.222.708-.166c2.978 1.042 5.7 2.693 8.028 4.85a21.61 21.61 0 0 1 1.887 2.034c.063.06.428.473.744.894s.6.86.507.916a.37.37 0 0 1-.48-.027zm7.403 9.534a2.901 2.901 0 1 0 0-5.803 2.901 2.901 0 1 0 0 5.803z" class="E"/><path d="M310.496 240.07a2.89 2.89 0 1 0 0-5.803 2.89 2.89 0 1 0 0 5.803z" class="J"/><path opacity=".65" d="M365.232 245.893c.633 0 1.147-.378 1.147-.845s-.514-.844-1.147-.844-1.146.378-1.146.844.513.845 1.146.845zm-1.008-5.913c.316 0 .573-.188.573-.42s-.257-.42-.573-.42-.574.188-.574.42.257.42.574.42z" class="E"/><path opacity=".65" d="M315.607 239.257c.223-.38.18-.82-.095-.986s-.68.01-.904.4-.18.82.095.986.68-.01.904-.4zm.163-3.077c.28-.48.225-1.038-.124-1.245s-.86.014-1.14.495-.225 1.038.124 1.245.86-.014 1.14-.495z" class="J"/><path d="M311.367 273.954c4.753-5.656 12.46-9.034 20.248-8.892 2.092.038 4.504.514 5.494 2.252a4.59 4.59 0 0 1 .517 2.035c.056 1.002-.082 2.102-.85 2.8-.692.627-1.734.78-2.71.803-3.696.086-7.3-1.23-11.006-1.284-3.983-.056-7.776 1.348-11.446 2.733" class="D"/><path d="M311.375 271.79c4.894-6.314 11.735-10.135 19.682-10.03 2.136.026 4.596.533 5.583 2.44.332.704.507 1.472.513 2.252.052 1.126-.096 2.335-.886 3.115-.7.706-1.78.883-2.776.916-3.774.128-7.444-1.3-11.233-1.34-4.065-.03-6.21 1.61-9.968 3.176" class="G"/><path d="M310.965 271.785l.238.476c3.763-1.57 7.645-3.16 11.714-3.126 3.774.03 7.444 1.464 11.23 1.34.997-.034 2.066-.2 2.777-.92s.91-1.85.89-2.905c-1.072.796-2.53 1.606-3.878 1.6a22.79 22.79 0 0 1-5.412-.529c-4.066-.985-8.3-1.026-12.383-.12-2.762 1.644-3.198 1.636-5.174 4.185z" class="E"/><path d="M310.496 271.496a4.29 4.29 0 0 1 .834-1.321c.242-.248.458-.522.685-.785a5.49 5.49 0 0 1 .562-.589l.848-.8.853-.784a7.54 7.54 0 0 1 .61-.503l.964-.72 1.22-.803 1.366-.785 1.38-.683 1.247-.544 1.488-.548 1.117-.353c.462-.143.998-.26 1.51-.375l2.297-.45c.15-.034.435-.08.793-.13s.785-.068 1.217-.1l1.254-.05.897-.023c.317-.008.634.008.95.05a14.73 14.73 0 0 1 2.043.349c.724.17 1.4.5 1.984.965a4.6 4.6 0 0 1 1.534 2.417 5.2 5.2 0 0 1 .137.642c.065.562.088 1.128.067 1.693-.017.604-.13 1.2-.338 1.768a3.4 3.4 0 0 1-1.195 1.572 4.17 4.17 0 0 1-1.734.68c-.45.075-.907.11-1.363.1h-.833c-1.47-.038-2.928-.235-4.355-.585-.183-.048-.368-.086-.555-.113-1.046-.116-2.054-.375-3.074-.5l-.975-.12c-.253 0-.507-.06-.745-.057a18.43 18.43 0 0 0-3.35.237c-.072.01-.144.023-.215.04l-3.5.84c-.718.18-1.416.432-2.085.75-.13.07-.265.13-.405.176-.71.222-1.4.514-2.1.788-.034.01-.07.02-.104.027-.115.037-.34-.177-.372-.233.034-.345.126-.68.272-.995.085-.06.174-.117.268-.165a2.34 2.34 0 0 0 .766-.507 1.16 1.16 0 0 1 .469-.262l4.37-1.442 1.932-.454c1.644-.324 3.326-.412 4.995-.263 1.652.15 3.25.48 4.812.75l1.638.315c.5.103 1.008.175 1.52.214l1.3.05c.417.005.833-.02 1.246-.08.513-.05 1.003-.237 1.42-.544a2.19 2.19 0 0 0 .699-1.254 5.58 5.58 0 0 0 .101-1.43c-.013-.484-.084-.964-.212-1.43-.135-.427-.36-.82-.657-1.153a3.11 3.11 0 0 0-1.07-.776c-.058-.03-.118-.058-.18-.083-.393-.132-.795-.237-1.202-.315-.545-.104-1.096-.168-1.65-.192-1.117-.022-2.18 0-2.308.034l-1.7.184-.84.128-.833.16a30.8 30.8 0 0 0-3.268.901l-1.39.525-1.347.624-.372.202c-2.704 1.32-5.145 3.13-7.202 5.338a1.55 1.55 0 0 1-.402.315c-.138.088-.27.184-.4.285-.126.08-.242.098-.372.188s-.26.244-.39.375-.253.132-.294.045-.242-.337-.28-.43z" class="B"/><path d="M366.64 273.928c-4.75-5.63-12.457-9.03-20.24-8.892-2.088.037-4.5.514-5.5 2.252-.328.628-.505 1.325-.518 2.034-.055 1.003.08 2.102.845 2.8.693.626 1.74.78 2.714.803 3.696.086 7.3-1.23 11.006-1.284 3.982-.056 7.775 1.348 11.445 2.733" class="D"/><path d="M367.008 271.766c-4.895-6.313-11.736-10.135-19.682-10.03-2.137.027-4.597.533-5.583 2.44-.33.704-.505 1.473-.5 2.252-.053 1.127.096 2.335.885 3.116.71.706 1.78.882 2.777.916 3.774.127 7.444-1.3 11.233-1.34 4.065-.03 6.205 1.6 9.964 3.175" class="G"/><path d="M367.045 271.762l-.238.477c-3.763-1.57-7.645-3.16-11.714-3.127-3.774.03-7.444 1.464-11.23 1.34-.997-.033-2.07-.2-2.777-.92s-.915-1.85-.89-2.906c1.072.796 2.53 1.607 3.878 1.6 1.816.04 3.63-.137 5.405-.53a27.43 27.43 0 0 1 12.387-.12c2.765 1.644 3.2 1.637 5.177 4.185z" class="E"/><path d="M366.83 272.02a4.68 4.68 0 0 1-1.094-.998l-.7-.698-.562-.53-.8-.75-.867-.672c-.13-.11-.34-.255-.6-.447l-.915-.668-1.147-.75-1.28-.75-1.295-.68-1.17-.544-1.407-.556-1.068-.375-1.433-.398a15.72 15.72 0 0 0-2.185-.398c-.145 0-.417-.04-.744-.086l-1.154-.1c-.4-.038-.827-.038-1.188-.05s-.662 0-.837 0l-.85.052a5.93 5.93 0 0 0-3.126 1.171c-.495.382-.845.924-1 1.536-.04.15-.063.31-.093.473-.184.872-.138 1.778.134 2.627a1.8 1.8 0 0 0 .64.83c.332.21.703.353 1.1.416a6.07 6.07 0 0 0 1.117.113c.248.015.497.015.744 0l4.143-.488a5.14 5.14 0 0 0 .551-.09c1.04-.238 2.093-.42 3.153-.544.338-.057.692-.075 1.042-.106l.82-.037c1.217-.065 2.438.008 3.64.218l.23.037c1.263.186 2.5.53 3.678 1.02.703.288 1.422.54 2.15.75.147.037.3.087.428.15l2.077.908c.034 0 .06.038.093.057.108.056.12.375.093.424-.265.218-.565.4-.886.5a2.14 2.14 0 0 1-.305-.071c-.283-.117-.587-.175-.893-.17-.178-.004-.352-.05-.5-.13a31.21 31.21 0 0 0-4.169-1.502 17.85 17.85 0 0 0-1.812-.413 16.18 16.18 0 0 0-4.575-.244c-1.537.14-3.085.45-4.675.75l-1.7.24-1.615.15-1.407.068a9.19 9.19 0 0 1-1.455-.075 4.18 4.18 0 0 1-2.111-.86c-.607-.53-1.018-1.25-1.168-2.045-.118-.593-.16-1.2-.123-1.802a7.39 7.39 0 0 1 .283-1.772c.2-.617.514-1.184.95-1.66a4.99 4.99 0 0 1 1.489-1.092l.227-.11c.455-.226.934-.397 1.43-.5a10.86 10.86 0 0 1 1.891-.256 23.15 23.15 0 0 1 2.471.06l1.798.173.893.124.882.18c1.175.236 2.332.556 3.462.957l1.463.567 1.433.634.413.21c1.497.794 2.922 1.717 4.26 2.76 1.167.9 2.26 1.914 3.265 3.002a1.82 1.82 0 0 1 .305.443l.234.458c.064.147.06.267.127.41s.197.308.287.462.08.274 0 .297-.38.172-.477.187z" class="B"/><path d="M316.258 318.378a28.68 28.68 0 0 1-5.929-9.305c-.05-.128-.023-.522.17-.593s.473.195.52.32a28 28 0 0 0 3.35 6.407 27.13 27.13 0 0 0 1.265 1.73c.04.053.335.376.603.672s.52.616.447.687c-.138.147-.33.184-.428.083zm5.68 2.812a19.38 19.38 0 0 1-6.48-6.054c-.04-.1-.053-.187-.037-.283a.48.48 0 0 1 .13-.254.47.47 0 0 1 .524.12 18.81 18.81 0 0 0 3.782 4.34l1.336 1.074c.04.03.34.2.614.375s.533.375.48.45c-.115.184-.275.3-.35.233z" fill="#fac69a"/><g class="B"><path d="M357.907 309.313l-1.585-2.55c0-.03.07-.202.245-.31s.373-.12.373-.087l.93 1.787.242.544c.022.03.305.376.134.473s-.316.177-.34.143z"/><path d="M357.297 305.927l-.275 3.73c0 .045-.18.154-.373.14s-.372-.146-.372-.195l.335-2.48.134-.728c0-.045-.022-.6.182-.575s.37.064.37.1zm-5.613 20.65l-1.585-2.55c0-.034.07-.203.245-.315.053-.04.113-.068.177-.082s.13-.017.195-.005l.93 1.787.242.548c.018.03.305.375.13.473s-.305.173-.335.143z"/><path d="M351.074 323.2l-.276 3.73c0 .045-.178.154-.372.14s-.372-.15-.372-.195l.335-2.482.134-.728c0-.05-.023-.6.182-.574s.372.064.37.1zm-39.238-19.735l.346-3.003c0-.037.18-.116.372-.1s.373.14.373.176l-.373 1.982-.15.578c0 .038 0 .477-.193.45s-.38-.057-.376-.094z"/><path d="M313.46 300.44l-2.527 2.737c-.034.034-.235 0-.373-.135s-.19-.346-.16-.376l1.79-1.71.554-.484c.034-.034.35-.473.5-.335s.246.27.216.304z"/></g><g class="C"><path d="M324.93 323.043c.323 0 .585-.376.585-.84s-.262-.84-.585-.84-.584.376-.584.84.26.84.584.84zm4.433 3.664a.642.642 0 1 0 0-1.284.642.642 0 1 0 0 1.284z"/><path d="M323.177 327.086a2.46 2.46 0 0 1 1.28-1.356 2.43 2.43 0 0 1 1.855-.064 2.46 2.46 0 0 1 1.368 1.266 2.49 2.49 0 0 1 .097 1.869m-14.214-31.484a.59.59 0 0 1 .305.138 1.54 1.54 0 0 0 .183.128 1.1 1.1 0 0 1 .137.098 3.32 3.32 0 0 0 .399.289c.253.17 1.462 1.126 1.6 1.227l.87.627c.126.05.588.4.744.484.057.032.112.067.164.105.223.165.495.248.722.402.142.097.3.18.436.266.037.018.073.038.107.06.373.244.745.417 1.147.627l.238.12c.048.03.098.054.15.075l.834.376a.76.76 0 0 0 .108.05 6.26 6.26 0 0 1 .636.229l.205.07a1.24 1.24 0 0 0 .156.052l.718.203h.05a6.58 6.58 0 0 1 .744.199c.153.05.312.077.473.083.03-.004.062-.004.093 0a1.29 1.29 0 0 0 .424.041c.02 0 .06.113.064.135a.87.87 0 0 1-.105.338c-.024.012-.05.02-.078.022-.078.003-.155.025-.223.064a.14.14 0 0 1-.063.013.16.16 0 0 1-.064-.013l-1-.202-.417-.102a14.58 14.58 0 0 1-2.021-.668l-.338-.16c-.1-.057-.2-.105-.313-.154l-.543-.256-.745-.375-1.217-.724c-.012-.012-.026-.02-.04-.027-.347-.18-.68-.385-1-.6l-.637-.436-.617-.45-.536-.398-.082-.056-1.578-1.265a.23.23 0 0 1-.067-.098c0-.034-.04-.068-.056-.1a1.15 1.15 0 0 0-.026-.105c-.022-.034-.047-.066-.075-.094a.07.07 0 0 1-.019-.047c0-.018.007-.034.02-.047l.138-.13z"/><path opacity=".5" d="M316.928 298.11c.032-.012.067-.015.1-.01s.067.017.096.037a.88.88 0 0 0 .112.052.8.8 0 0 1 .089.042c.076.053.158.096.246.127.16.064.89.556.964.6a4.37 4.37 0 0 0 .521.315c.07.023.346.2.43.244a.38.38 0 0 1 .097.053c.13.1.298.112.428.2s.164.097.25.146a.5.5 0 0 1 .059.034c.205.142.436.236.648.375l.13.075a.38.38 0 0 0 .082.049c.16.07.314.153.458.252a.19.19 0 0 0 .059.033c.12.046.235.1.347.162.037 0 .07.037.107.056l.086.045c.134.045.257.113.372.17h.026a1.28 1.28 0 0 1 .402.199c.076.054.165.088.257.097.017-.005.035-.005.052 0 .078.047.16.086.246.117 0 0 0 .12-.02.142a1.81 1.81 0 0 1-.182.282h-.04c-.023-.006-.046-.006-.07-.001s-.044.016-.06.03c-.01.008-.023.013-.036.013s-.025-.005-.035-.013c-.164-.098-.346-.146-.514-.233-.07-.033-.15-.06-.223-.1l-1.083-.507c-.063-.03-.123-.07-.18-.112s-.108-.074-.167-.1l-.298-.154-.417-.23-.688-.402c-.01-.002-.018-.002-.027 0a3.65 3.65 0 0 1-.602-.327l-.373-.213-.372-.226c-.123-.082-.216-.127-.324-.19l-.048-.026c-.164-.12-.867-.563-.953-.616-.01-.006-.02-.015-.026-.025s-.01-.023-.01-.035c0-.026-.022-.045-.03-.07.002-.028.002-.055 0-.083-.01-.02-.024-.04-.04-.056-.007-.013-.01-.027-.01-.042s.004-.028.01-.04l.153-.142z"/></g><path d="M309.834 255.75c-1.356 1.74-2.307 3.766-2.784 5.926a.43.43 0 0 1-.18.174c-.076.038-.16.052-.245.04-.083-.022-.157-.07-.21-.138s-.085-.15-.1-.237c.38-1.496.977-2.927 1.775-4.245l.778-1.1c.034-.075.577-.908.744-.773s.26.29.213.353z" fill="#fac69a"/><path d="M354.483 298.25c6.22 0 11.263-4.865 11.263-10.866s-5.043-10.867-11.263-10.867-11.263 4.865-11.263 10.867 5.043 10.866 11.263 10.866z" class="D"/><path d="M354.505 295.946c6.22 0 11.263-5.085 11.263-11.358s-5.042-11.358-11.263-11.358-11.262 5.085-11.262 11.358 5.042 11.358 11.262 11.358z" class="C"/><path d="M357.16 280.68c0-1.306-1.05-2.365-2.345-2.365s-2.345 1.06-2.345 2.365v7.1c0 1.306 1.05 2.365 2.345 2.365s2.345-1.06 2.345-2.365v-7.1z" class="B"/><path d="M356.984 284.37a2.21 2.21 0 0 0 0-4.436c-1.215 0-2.2.993-2.2 2.218s.984 2.218 2.2 2.218z" class="C"/><path d="M365.772 284.836a11.45 11.45 0 0 1-.798 4.411 11.37 11.37 0 0 1-2.428 3.756 11.27 11.27 0 0 1-3.68 2.517c-1.38.584-2.862.884-4.36.884s-2.978-.3-4.36-.884a11.27 11.27 0 0 1-3.68-2.517c-1.048-1.077-1.874-2.354-2.428-3.756s-.825-2.902-.798-4.41l.05-1.03c.26 2.82 1.554 5.437 3.628 7.344a11.21 11.21 0 0 0 7.586 2.963c2.807 0 5.512-1.057 7.587-2.963s3.368-4.525 3.628-7.344c.036.342.053.685.052 1.03z" fill="#c2d9dd"/><path d="M344.143 285.564c.153 2.3 1.04 4.468 2.523 6.208a10.51 10.51 0 0 0 5.711 3.441 10.44 10.44 0 0 0 6.616-.701c2.073-.95 3.784-2.55 4.877-4.564a10.52 10.52 0 0 0 1.18-3.693c.03-.127.065-.253.108-.376.048-.154.11-.305.182-.45.153-.297.35-.563.555-.563s.372.274.5.616c.06.172.102.35.13.53.02.144.02.29 0 .435-.28 1.964-1.04 3.828-2.21 5.424s-2.712 2.876-4.49 3.724l-.666.304-.69.244-.342.12-.372.1-.707.173-.72.108a5.65 5.65 0 0 1-.722.079 10.93 10.93 0 0 1-1.448 0c-1.916-.087-3.78-.656-5.423-1.655-.963-.594-1.833-1.33-2.58-2.185a11.2 11.2 0 0 1-1.843-2.815 10.4 10.4 0 0 1-.956-2.669c-.257-1.272-.175-2.518 0-2.51a.77.77 0 0 1 .525.19c.145.127.238.304.26.497z" class="B"/><path d="M325.697 297.846c6.292 0 11.393-4.93 11.393-11.013s-5.1-11.013-11.393-11.013-11.393 4.93-11.393 11.013 5.1 11.013 11.393 11.013z" class="D"/><path d="M325.675 295.47c6.292 0 11.393-5.144 11.393-11.5s-5.1-11.5-11.393-11.5-11.394 5.145-11.394 11.5 5.1 11.5 11.394 11.5z" class="C"/><path d="M314.28 284.232a11.57 11.57 0 0 0 .868 4.397c.572 1.393 1.41 2.66 2.47 3.727a11.39 11.39 0 0 0 3.697 2.491c1.382.577 2.863.874 4.36.874a11.32 11.32 0 0 0 4.36-.874 11.4 11.4 0 0 0 3.696-2.491c1.058-1.067 1.897-2.334 2.47-3.727a11.57 11.57 0 0 0 .868-4.397l-.05-1.044a11.52 11.52 0 0 1-3.661 7.444 11.34 11.34 0 0 1-15.363 0 11.52 11.52 0 0 1-3.661-7.444 9.58 9.58 0 0 0-.053 1.044z" fill="#c2d9dd"/><path d="M337.276 285.072c-.147 2.262-.913 4.437-2.213 6.286a12.18 12.18 0 0 1-5.149 4.187c-2.072.875-4.344 1.156-6.565.814a12.17 12.17 0 0 1-6.023-2.755c-2.305-1.96-3.796-4.72-4.176-7.736a1.51 1.51 0 0 1 0-.435 3.4 3.4 0 0 1 .134-.537c.115-.345.3-.623.495-.623s.406.27.554.57a3.17 3.17 0 0 1 .183.458 2.88 2.88 0 0 1 .108.376 10.85 10.85 0 0 0 1.869 4.923c1.016 1.46 2.375 2.645 3.956 3.447l.6.297.622.236.3.12.32.1.644.177c.215.05.44.075.658.116l.66.094a9.99 9.99 0 0 0 1.336.045 10.62 10.62 0 0 0 5.126-1.423 11.06 11.06 0 0 0 4.418-4.538c.4-.822.688-1.686.9-2.575.283-1.208.34-2.4.558-2.413a.73.73 0 0 1 .284.07.7.7 0 0 1 .232.18.74.74 0 0 1 .173.549zm1.076 26.155h-2.055a.74.74 0 0 1-.526-.22.75.75 0 0 1 0-1.061.74.74 0 0 1 .526-.22h2.055a13.99 13.99 0 0 0 8.047-2.534c.162-.113.363-.157.557-.122s.367.148.48.312a.75.75 0 0 1-.19 1.045c-2.612 1.827-5.716 2.804-8.895 2.8z" class="B"/><g class="E"><path opacity=".8" d="M315.938 301.885c.233.057.446.176.618.345.115.105.25.188.372.285a2.63 2.63 0 0 1 .286.218 5.54 5.54 0 0 0 .83.616l1.86 1.234a17.33 17.33 0 0 0 1.739.95 11.8 11.8 0 0 0 1.116.462c.32.124.65.222.986.293.59.143 1.188.255 1.79.334.13 0 .26.022.372.037a2.41 2.41 0 0 0 1.381-.308 1.61 1.61 0 0 0 .588-.551l.115-.184c.458-.672.61-1.678 1.165-2.61.112-.184.227-.375.373-.533l.24-.327a5.91 5.91 0 0 1 1.56-1.501c.074-.06.164-.1.234-.165a5.61 5.61 0 0 1 1.381-.8c.158-.07.32-.132.488-.18.126-.05.26-.067.372-.112l1.578-.455c.035-.006.07-.016.1-.03a7.07 7.07 0 0 1 1.731-.375 6.64 6.64 0 0 0 1.075-.195c.072-.022.145-.034.22-.038h1.17c.018 0 .115.237.115.286-.077.226-.177.443-.298.65-.044.02-.1.033-.138.04a.63.63 0 0 0-.372.165c-.06.054-.142.08-.223.075-.673.04-1.34.147-1.99.32l-.853.23-1.083.3-.55.15-.484.15a6.47 6.47 0 0 0-1.816.995l-.577.45a3.28 3.28 0 0 0-.491.473 6.2 6.2 0 0 0-.674.957 9.97 9.97 0 0 0-.692 1.569 6.29 6.29 0 0 1-.745 1.475c-.367.5-.9.885-1.488 1.066a.65.65 0 0 0-.123.038 2.79 2.79 0 0 1-.745.154 5.16 5.16 0 0 1-.93-.023c-.592-.067-1.08-.187-1.15-.2a12.87 12.87 0 0 1-1.653-.42 13.29 13.29 0 0 1-1.589-.612l-1.32-.657-.194-.1-1.97-1.34-1.597-1.3a.45.45 0 0 1-.145-.21c-.03-.075-.085-.147-.11-.226s-.02-.15-.05-.217c-.044-.076-.093-.147-.15-.214-.01-.014-.02-.03-.023-.048a.14.14 0 0 1-.002-.054.13.13 0 0 1 .02-.049c.01-.015.024-.027.04-.037.067-.04.245-.2.31-.236z"/><path opacity=".5" d="M313.43 304.174l4.716 2.4a.42.42 0 0 1 .085.215c.008.078-.006.157-.04.228a.4.4 0 0 1-.153.17c-.066.04-.142.06-.22.06l-3.1-1.745-.893-.552c-.056-.026-.767-.315-.674-.5s.216-.316.268-.286zm29.768-1.937c-2.22-.16-4.45-.097-6.655.192a.43.43 0 0 1-.346-.334.43.43 0 0 1 .062-.247.42.42 0 0 1 .19-.166c1.5-.144 3.028-.186 4.544-.128l1.333.117c.082 0 1.064 0 1.05.202s-.096.368-.178.364z"/></g><path d="M311.326 232.485c5.993-.6 11.84-2.22 17.282-4.82.197-.097.792-.2.885 0s-.372.593-.565.7c-3.703 1.707-7.588 2.978-11.58 3.787-1.176.222-2.356.417-3.543.56-.108 0-.8.13-1.5.206s-1.34.094-1.35 0c-.004-.052.002-.104.018-.153s.042-.095.075-.135a.41.41 0 0 1 .12-.095.4.4 0 0 1 .147-.041zm47.422 14.042a84.41 84.41 0 0 1-27.17 3.003c-.34 0-1.2-.237-1.195-.443s.897-.308 1.232-.308c6.067.368 12.155.075 18.16-.874 1.768-.27 3.532-.582 5.28-.97.164-.03 1.2-.3 2.2-.548s1.95-.5 1.98-.375c.052.188-.164.42-.488.514zm-3.858-.867a61.68 61.68 0 0 1-19.842 2.17c-.246 0-.882-.177-.87-.327s.658-.236.9-.22a61.28 61.28 0 0 0 13.258-.62l3.856-.702c.123-.022.88-.22 1.608-.4s1.426-.376 1.448-.282c.04.147-.12.315-.357.383zm-31.836 42.1c0 1.306 1.05 2.365 2.345 2.365s2.345-1.06 2.345-2.365v-7.1c0-1.306-1.05-2.365-2.345-2.365s-2.345 1.06-2.345 2.365v7.1z" class="B"/><path d="M323.233 284.37a2.21 2.21 0 0 0 0-4.436 2.21 2.21 0 0 0 0 4.436z" class="C"/><path d="M365.7 314.313c.323 0 .584-.377.584-.84s-.26-.84-.584-.84-.584.376-.584.84.26.84.584.84zm-4.618.787c.26 0 .473-.32.473-.713s-.212-.714-.473-.714-.473.32-.473.714.212.713.473.713zm1.998 3.94c.775-.954.836-2.196.137-2.774s-1.895-.274-2.67.68-.837 2.197-.137 2.775 1.895.273 2.67-.68z" class="E"/><path d="M372.993 278.132c-.14 0-.277-.032-.403-.093s-.236-.15-.323-.26c-5.55-6.95-9.5-17.83-10.46-28.602-9.085 1.937-18.458 3.85-27.952 3.6-7.255-.2-13.43-1.074-18.882-2.68-7.84-2.305-13.18-7.18-15.882-14.5l-1.895-5.477a.94.94 0 0 1-.026-.53c.042-.176.134-.335.263-.46a.94.94 0 0 1 .468-.242.93.93 0 0 1 .524.053c.134.052 13.738 5.326 34.082-6.697 9.305-5.5 19.355-5.66 28.34-.473 8.4 4.857 14.2 13.723 14.813 22.443l4.124-2.192a.92.92 0 0 1 .848-.01.93.93 0 0 1 .335.281.94.94 0 0 1 .172.404 69.21 69.21 0 0 1 .633 12.954c-.424 9.624-2.806 16.985-7.072 21.868-.12.136-.275.235-.45.283a.92.92 0 0 1-.53-.009.88.88 0 0 1-.138.135c-.167.136-.377.208-.6.203zm-10.344-31.034a.92.92 0 0 1 .638.251.94.94 0 0 1 .293.623c.744 10.536 4.466 21.28 9.8 28.2 8.12-9.407 6.7-26.962 6.1-31.868l-4.258 2.252c-.142.076-.3.113-.46.1s-.317-.05-.454-.134a.93.93 0 0 1-.33-.343.94.94 0 0 1-.121-.461c0-8.547-5.6-17.526-13.935-22.342-4.84-2.804-14.74-6.47-26.47.462-17.047 10.075-29.404 8.5-33.893 7.387l1.288 3.712c2.482 6.727 7.407 11.205 14.65 13.348 5.296 1.558 11.318 2.4 18.4 2.605 9.647.266 19.254-1.794 28.555-3.78a.84.84 0 0 1 .2-.022zm-28.492 85.57c-6.275 0-11.955-3.135-16.206-5.863-9.725-6.24-15.022-17.87-13.496-29.654l.905-6.98 1.366 1.764c1.8 2.206 3.793 4.245 5.955 6.092 3.26 2.796 8.255 6.238 13.548 6.756.473.045.614-.06 1.228-1.373 1.065-2.294 2.85-6.126 12.075-6.126h.245c7.545 0 9.86 3.483 11.393 5.78.9 1.33 1.262 1.8 1.94 1.72 10.213-1.036 19.395-12.762 19.484-12.867l1.37-1.768.905 6.986c1.526 11.767-3.775 23.4-13.496 29.653-5.755 3.693-11.044 5.487-16.18 5.487l-11.017.376-.02.02zm-27.513-37.9l-.34 2.653c-1.433 11.047 3.532 21.962 12.655 27.8 4.038 2.594 9.413 5.57 15.182 5.57l11.017-.376c4.798 0 9.763-1.696 15.2-5.195 9.12-5.848 14.084-16.763 12.654-27.8l-.346-2.66c-3.044 3.435-10.708 11.058-19.38 11.936-1.84.188-2.773-1.2-3.67-2.54-1.47-2.203-3.305-4.95-9.893-4.95h-.2c-8.036 0-9.4 2.917-10.384 5.045-.573 1.235-1.22 2.628-3.097 2.447-8.687-.878-16.35-8.5-19.4-11.936v.008z" class="B"/><rect x="298.5" y="245.5" width="83" height="83" rx="12.5" stroke="#87eaf2" stroke-width="5"/><defs><clipPath id="A"><path d="M477.5 160H615v40H477.5z" class="C"/></clipPath></defs></svg>